<svg  viewBox="0 0 1320 1040" fill="none" xmlns="http://www.w3.org/2000/svg">
<path d="M1319.8 108H678.8V813.8H1319.8V108Z" fill="#FFDF57"/>
<path d="M1276.6 148.5H722V643.1H1276.6V148.5Z" fill="white"/>
<path d="M1276.6 143.7H722C719.3 143.7 717.2 145.9 717.2 148.5V643.1C717.2 645.7 719.3 647.9 722 647.9H1276.6C1279.2 647.9 1281.4 645.7 1281.4 643.1V148.5C1281.4 145.8 1279.2 143.7 1276.6 143.7ZM1271.8 638.3H726.8V153.3H1271.8V638.3Z" fill="#853EF3"/>
<path d="M995.372 526.786C995.81 523.501 993.501 520.483 990.216 520.046C986.932 519.608 983.914 521.917 983.477 525.202C983.039 528.486 985.348 531.504 988.632 531.941C991.917 532.379 994.935 530.07 995.372 526.786Z" fill="#111827"/>
<path d="M989.4 498C986.8 498 984.7 495.9 984.6 493.3L982.8 409.7C982.8 408.4 983.3 407.1 984.2 406.2C985.1 405.3 986.5 404.7 987.8 404.8C988.4 404.8 1046.1 406.9 1076.5 375.8C1090.2 361.8 1096.4 343 1095 319.9C1089.5 230.7 973.5 232.1 968.6 232.1H968.5C965.9 232.1 963.8 230 963.7 227.4C963.6 224.7 965.7 222.6 968.4 222.5C969.7 222.5 1098.6 220.8 1104.6 319.3C1106.2 345.3 1099.1 366.5 1083.4 382.5C1055.2 411.2 1008.2 414.2 992.6 414.3L994.3 493C994.4 495.6 992.3 497.8 989.6 497.9C989.5 498 989.4 498 989.4 498Z" fill="#111827"/>
<path d="M1044.5 730.3H788.4C785.7 730.3 783.6 728.2 783.6 725.5C783.6 722.8 785.7 720.7 788.4 720.7H1044.5C1047.2 720.7 1049.3 722.8 1049.3 725.5C1049.3 728.2 1047.1 730.3 1044.5 730.3Z" fill="#853EF3"/>
<path d="M1158.9 66.0001C1169.5 66.0001 1178.1 57.4039 1178.1 46.8001C1178.1 36.1962 1169.5 27.6001 1158.9 27.6001C1148.3 27.6001 1139.7 36.1962 1139.7 46.8001C1139.7 57.4039 1148.3 66.0001 1158.9 66.0001Z" fill="#FF98E1"/>
<path d="M1228.5 66.0001C1239.1 66.0001 1247.7 57.4039 1247.7 46.8001C1247.7 36.1962 1239.1 27.6001 1228.5 27.6001C1217.9 27.6001 1209.3 36.1962 1209.3 46.8001C1209.3 57.4039 1217.9 66.0001 1228.5 66.0001Z" fill="#FF98E1"/>
<path d="M1298.2 66.0001C1308.8 66.0001 1317.4 57.4039 1317.4 46.8001C1317.4 36.1962 1308.8 27.6001 1298.2 27.6001C1287.6 27.6001 1279 36.1962 1279 46.8001C1279 57.4039 1287.6 66.0001 1298.2 66.0001Z" fill="#F76567"/>
<path d="M1285.4 666.3C1188.4 666.3 1105.5 727.8 1073.7 813.9H1084C1115.4 733.3 1193.8 675.9 1285.5 675.9C1297.2 675.9 1308.7 676.8 1319.9 678.6V668.9C1308.6 667.2 1297.1 666.3 1285.4 666.3Z" fill="white"/>
<path d="M307.6 18.7H6.69995V350H307.6V18.7Z" fill="#FF98E1"/>
<path d="M276.3 47.5H38V260H276.3V47.5Z" fill="white"/>
<path d="M281.1 47.0998C281.1 46.9998 281.1 46.7998 281 46.6998C281 46.5998 281 46.4998 281 46.4998C281 46.3998 281 46.2998 280.9 46.1998C280.9 46.0998 280.8 45.8998 280.8 45.7998C280.8 45.6998 280.7 45.5998 280.6 45.3998V45.2998C280.5 45.1998 280.5 45.0998 280.4 44.8998C280.3 44.7998 280.2 44.5998 280.1 44.4998C280 44.3998 279.9 44.2998 279.8 44.1998C279.7 44.0998 279.6 43.9998 279.5 43.8998C279.4 43.7998 279.3 43.6998 279.1 43.5998C279 43.4998 278.8 43.3998 278.7 43.3998C278.6 43.2998 278.4 43.2998 278.3 43.1998C278 43.0998 277.6 42.9998 277.3 42.8998C277 42.8998 276.7 42.7998 276.4 42.7998H37.9999C37.6999 42.7998 37.3999 42.7998 37.0999 42.8998C36.7999 42.9998 36.3999 43.0998 36.0999 43.1998C35.9999 43.2998 35.8 43.2998 35.7 43.3998C35.6 43.4998 35.3999 43.5998 35.2999 43.5998C35.1999 43.6998 34.9999 43.7998 34.8999 43.8998C34.7999 43.9998 34.6999 44.0998 34.5999 44.1998C34.4999 44.2998 34.3999 44.3998 34.2999 44.4998C34.1999 44.5998 34.0999 44.6998 33.9999 44.8998C33.8999 44.9998 33.8999 45.0998 33.7999 45.2998V45.3998C33.6999 45.4998 33.6999 45.5998 33.5999 45.7998C33.4999 45.8998 33.4999 46.0998 33.4999 46.1998C33.4999 46.2998 33.3999 46.3998 33.3999 46.4998C33.3999 46.5998 33.3999 46.6998 33.3999 46.6998C33.3999 46.7998 33.3999 46.9998 33.2999 47.0998C33.2999 47.1998 33.2999 47.3998 33.2999 47.4998V260C33.2999 260.1 33.2999 260.3 33.2999 260.4C33.2999 260.5 33.2999 260.7 33.2999 260.8C33.2999 260.9 33.2999 261 33.3999 261C33.3999 261.1 33.4999 261.3 33.4999 261.4C33.4999 261.6 33.6 261.7 33.7 261.8C33.8 262 33.7999 262.1 33.8999 262.2C33.9999 262.3 34.0999 262.5 34.0999 262.6C34.1999 262.7 34.1999 262.8 34.2999 262.9C34.3999 263 34.3999 263 34.4999 263.1C34.5999 263.3 34.7999 263.4 34.8999 263.5C34.9999 263.6 35.1 263.7 35.2 263.8C35.3 263.9 35.3999 263.9 35.4999 264C35.5999 264 35.7 264.1 35.7 264.1C36.2 264.4 36.5999 264.5 37.0999 264.6C37.3999 264.6 37.6999 264.7 37.9999 264.7H276.3C276.6 264.7 276.9 264.7 277.2 264.6C277.7 264.5 278.2 264.3 278.6 264.1C278.7 264.1 278.8 264 278.8 264C278.9 264 279 263.9 279.1 263.8C279.2 263.7 279.3 263.6 279.4 263.5C279.6 263.4 279.7 263.2 279.8 263.1C279.9 263 279.9 263 280 262.9C280.1 262.8 280.1 262.7 280.2 262.6C280.3 262.5 280.3 262.3 280.4 262.2C280.5 262.1 280.5 261.9 280.6 261.8C280.7 261.7 280.7 261.5 280.8 261.4C280.8 261.3 280.9 261.1 280.9 261C280.9 260.9 280.9 260.8 280.9 260.8C280.9 260.7 280.9 260.5 280.9 260.4C280.9 260.3 280.9 260.1 280.9 260V47.4998C281.1 47.3998 281.1 47.1998 281.1 47.0998ZM42.7999 255.2V52.2998H271.5V255.2H42.7999Z" fill="#00DA9F"/>
<path d="M276.3 264.8C275.2 264.8 274 264.4 273.1 263.6L34.7999 51.0999C32.7999 49.2999 32.5999 46.2999 34.3999 44.2999C36.1999 42.2999 39.1999 42.1999 41.1999 43.8999L279.5 256.4C281.5 258.2 281.7 261.2 279.9 263.2C278.9 264.3 277.6 264.8 276.3 264.8Z" fill="#00DA9F"/>
<path d="M37.9999 264.8C36.6999 264.8 35.3999 264.3 34.3999 263.2C32.5999 261.2 32.7999 258.2 34.7999 256.4L273.1 43.8999C275.1 42.0999 278.1 42.2999 279.9 44.2999C281.7 46.2999 281.5 49.2999 279.5 51.0999L41.1999 263.6C40.1999 264.4 39.0999 264.8 37.9999 264.8Z" fill="#00DA9F"/>
<path d="M607.7 57.2C602.4 48.7 597 40.1 591.7 31.6C588.4 26.4 580.1 31.2 583.4 36.4C588.7 44.9 594.1 53.5 599.4 62C602.6 67.3 610.9 62.5 607.7 57.2Z" fill="#FF98E1"/>
<path d="M623.7 31.6C618.4 22 613 12.3999 607.7 2.79995C604.7 -2.60005 596.4 2.19997 599.4 7.59997C604.7 17.2 610.1 26.8 615.4 36.4C618.4 41.9 626.7 37 623.7 31.6Z" fill="#FF98E1"/>
<path d="M33.7 435.8C15.2 435.8 0.0999756 450.9 0.0999756 469.4C0.0999756 487.9 15.2 503 33.7 503C52.2 503 67.3 487.9 67.3 469.4C67.3 450.9 52.2 435.8 33.7 435.8ZM33.7 493.4C20.5 493.4 9.69998 482.6 9.69998 469.4C9.69998 456.2 20.5 445.4 33.7 445.4C46.9 445.4 57.7 456.2 57.7 469.4C57.7 482.6 47 493.4 33.7 493.4Z" fill="#FFDF57"/>
<path d="M139.3 602.2C138.6 602.2 137.9 602 137.2 601.7C134.8 600.5 133.8 597.7 135 595.3L176.6 508.9C177.8 506.5 180.6 505.5 183 506.7C185.4 507.9 186.4 510.7 185.2 513.1L143.6 599.5C142.8 601.2 141.1 602.2 139.3 602.2Z" fill="#FFDF57"/>
<path d="M1139 884.8C1131.5 896.5 1124.1 908.3 1116.6 920C1113.3 925.2 1105 920.4 1108.3 915.2C1115.8 903.5 1123.2 891.7 1130.7 880C1134.1 874.7 1142.4 879.5 1139 884.8Z" fill="#FF98E1"/>
<path d="M445.1 302.7C444.7 296.5 443.3 291.1 441.2 286.6C427.4 256.8 382.2 260.5 360.1 285C339.7 307.6 336.2 339.2 330.4 367.8C325.8 390.4 317.6 407.7 307.2 427.9C301.9 438.2 296.5 448.9 295.9 460.7C293.5 512.3 359.6 519.1 387.7 486.6C406.4 465 407.1 436.1 402.5 409.4C402.4 409 402.4 408.6 402.3 408.3C402 406.4 401.6 404.6 401.3 402.7C400.9 400.8 400.5 398.9 400.1 397C397.3 383.3 394.3 369.3 396.1 355.5C396.5 352.6 397.1 349.8 397.8 347.2C398.8 343.9 400 340.9 401.5 337.9C406.4 328.1 414.1 320.1 422.8 313.1C424.4 311.8 426 310.5 427.6 309.3C428.9 308.3 430.3 307.3 431.6 306.3C431.9 306.1 432.2 305.9 432.5 305.7C433.5 305 434.5 304.3 435.5 303.6C435.5 303.7 435.5 303.7 435.5 303.8C436 309.9 445.5 308.9 445.1 302.7Z" fill="#111827"/>
<path d="M609.9 282.3C647.2 247.3 632.7 188.9 586.9 200.7C541.1 212.4 443.7 253.4 430.7 310.2C417.7 367 399.4 432 461.7 452.3C524 472.4 609.9 282.3 609.9 282.3Z" fill="#111827"/>
<path d="M645.6 456.5C635.7 482 609.8 491.6 581.9 494.7L561 575.2C561 575.2 544.3 619.8 521.9 674.2C491.2 615.5 458.2 564.4 458.2 564.4C458.2 564.4 463.8 536.1 481.4 468.1C457 454.6 444 410.5 444 410.5C397.1 410 351.7 385.6 364.2 338.3C373.1 304.7 406.6 302.9 430.6 310.1C440.4 313.1 448.7 317.6 453 322.1C453 322.1 450.4 285.4 507 265.3C555.7 248 589.4 252.9 609.9 282.3C617.4 293 623.2 307 627.3 324.4C639.7 376.8 655.6 430.7 645.6 456.5Z" fill="white"/>
<path d="M637.4 345.7C636.7 342.9 636.1 340.2 635.4 337.4C635.1 336.1 634.7 334.7 634.4 333.4C631.5 334.9 628.4 336.1 625.3 336.7C625.7 338.3 626.1 339.9 626.5 341.4C627 343.6 627.6 345.8 628.1 347.9C638.5 390.2 649.2 434 641.2 454.8C633.4 474.8 613.9 486.3 581.5 490C579.5 490.2 577.9 491.6 577.4 493.6L556.5 573.9C556 575.3 553.2 582.7 548.7 594.3C542.4 610.6 532.8 635.2 521.4 663C517 654.7 512.6 646.7 508.2 638.9C494.2 613.9 481.2 592.3 472.6 578.4C468.1 571.2 464.9 566 463.3 563.5C463.4 562.8 463.6 561.9 463.9 560.9C464.3 559 464.8 556.5 465.5 553.4C466 551.3 466.5 548.8 467.2 546C470.7 530.6 476.7 505.6 486.1 469.4C486.7 467.3 485.7 465.1 483.8 464C479.4 461.6 475.4 458 471.7 453.8C456.9 436.7 448.8 409.6 448.7 409.3C448.1 407.3 446.3 405.9 444.2 405.9C435.4 405.8 426.8 404.9 418.9 403.1C412.3 401.7 406 399.7 400.4 397.2C389.8 392.6 381.2 386.4 375.5 378.9C367.2 368 365 354.8 369 339.6C371.8 329.1 377.4 321.4 385.7 316.8C395.3 311.5 408.9 310.2 423 313.2C425.1 313.7 427.3 314.2 429.4 314.8C429.5 314.8 429.6 314.9 429.7 314.9C438.3 317.6 446 321.6 449.7 325.5C451.1 327 453.3 327.4 455.1 326.6C455.7 326.3 456.3 325.9 456.8 325.4C457.6 324.5 458.1 323.2 458 321.9C458 321.6 456.7 296.1 492 277.3C496.9 274.7 502.5 272.2 508.8 269.9C556.2 253 587.1 257.9 606.1 285.2C606.6 286 607.1 286.7 607.7 287.5C610 291.1 612.1 295.1 614.1 299.4H624.6C621.5 291.9 618 285.4 614 279.6C613.8 279.4 613.7 279.1 613.5 278.9C591.9 248.6 556.6 242.6 505.6 260.8C501 262.4 496.7 264.2 492.8 266C461 280.9 451.9 301.3 449.4 313.1C447.8 312.1 446.1 311.2 444.3 310.3C440.8 308.6 436.9 307 432.8 305.8C432.6 305.8 432.5 305.7 432.3 305.7H432.2C423.1 303 400.2 297.9 381.2 308.5C370.5 314.5 363.4 324.1 359.9 337.3C355.2 355.2 358 371.7 368 384.9C375.9 395.2 387.9 403.3 402.7 408.6C408.5 410.7 414.7 412.3 421.3 413.5C427.5 414.6 434 415.3 440.7 415.5C442.9 422.2 448.6 437.3 457.6 450.9C462.7 458.6 468.8 465.7 476.1 470.6C468.5 500 463.2 521.8 459.7 536.9C459.2 539.1 458.7 541.1 458.3 543C457.6 546 457 548.6 456.5 551C455.6 555 455 558 454.5 560.1C454 562.6 453.7 563.8 453.7 563.8C453.5 565 453.7 566.3 454.4 567.3C454.4 567.4 455 568.2 455.9 569.6C462.5 580 490.3 624.1 516.4 673.8C516.9 674.8 517.4 675.8 517.9 676.8C518.3 677.5 518.8 678.1 519.4 678.5C520.2 679.1 521.2 679.4 522.2 679.4H522.4C523.2 679.4 524 679.1 524.7 678.7C525 678.5 525.3 678.3 525.6 678C526 677.6 526.4 677.1 526.6 676.5C527 675.5 527.4 674.5 527.8 673.6C528.4 672 529.1 670.4 529.7 668.9C541.4 640.4 551.3 615 557.8 598.2C560.9 590.1 563.2 584.1 564.5 580.6C565.3 578.6 565.7 577.5 565.7 577.4C565.8 577.2 565.8 577.1 565.9 576.9L567.4 571.1L570.9 557.5L572.7 550.7L586 499.6C603.2 497.4 617 492.9 627.7 486.1C638.4 479.3 645.9 470.2 650.3 458.7C659.2 434.7 648.6 391.5 637.4 345.7Z" fill="#111827"/>
<path d="M597.8 397.1C597 397.1 596.2 396.9 595.5 396.5C593.2 395.2 592.3 392.3 593.6 390C604.3 370.6 597.3 350.2 566.7 311.9C565 309.8 565.4 306.8 567.5 305.2C569.6 303.5 572.6 303.9 574.2 306C602.9 342 616.7 368.1 602 394.8C601.2 396.2 599.5 397.1 597.8 397.1Z" fill="#111827"/>
<path d="M527.4 294.5C526.2 292 523.4 291.4 520.9 292.4C518.4 293.4 515.9 294.5 513.5 295.5C511.1 296.5 510.3 299.8 511.4 302C512.6 304.5 515.4 305.1 517.9 304.1C520.4 303.1 522.9 302 525.3 301C527.7 300 528.5 296.7 527.4 294.5Z" fill="#111827"/>
<path d="M623.3 292.6L612.2 293.2C606 293.3 606.2 302.9 612.4 302.8L623.5 302.2C629.7 302.1 629.5 292.5 623.3 292.6Z" fill="#111827"/>
<path d="M442.9 374.4C441 374.4 439.3 373.3 438.5 371.5C435.1 363.6 416.4 345.5 400.7 347.7C398.1 348 395.7 346.2 395.3 343.6C394.9 341 396.8 338.5 399.4 338.2C419.8 335.4 442.3 356 447.3 367.8C448.3 370.2 447.2 373.1 444.8 374.1C444.1 374.2 443.5 374.4 442.9 374.4Z" fill="#111827"/>
<path d="M492.6 266C491.4 261.3 483.6 260.4 483.3 266C483.2 267.2 483.1 268.4 483 269.6C482.6 269.6 482.2 269.6 481.8 269.8C468.6 274.3 457.2 282.6 449.8 294.5C447.1 298.8 444.4 304.7 444 310.3C443.8 312.3 444 314.2 444.5 316C445.2 318.4 446.5 320.6 448.7 322.4C451.3 324.5 454 325.4 456.6 325.4C464.4 325.3 472 317.8 476.5 312C484.5 301.8 489.6 289.9 491.7 277.3C492 275.4 492.3 273.5 492.5 271.5C492.6 270.2 492.7 269 492.8 267.7C492.8 267 492.7 266.4 492.6 266Z" fill="#111827"/>
<path d="M626.2 391.1C618.4 393.3 612 397.9 607.3 404.5C603.7 409.5 612 414.3 615.6 409.3C618.8 404.8 623.5 401.8 628.7 400.3C634.7 398.7 632.2 389.5 626.2 391.1Z" fill="#111827"/>
<path d="M529.6 359.3C515.8 359.3 500.3 350.2 493.3 328.4C492.5 325.9 493.9 323.2 496.4 322.4C498.9 321.6 501.6 323 502.4 325.5C508.4 344.4 522.1 351.1 532.7 349.5C544.5 347.6 552.2 336.3 552.2 320.6C552.2 318.2 554 316.1 556.4 315.8L593.2 311C595.6 310.7 597.9 312.2 598.5 314.5C602.1 328.1 613.4 333.8 622.6 332.4C630 331.3 637.7 325.1 637.1 311.2C637 308.6 639 306.3 641.7 306.2C644.4 305.9 646.6 308.1 646.7 310.8C647.7 331.1 635.1 340.3 624.1 342C611.6 343.9 596.7 337.3 590.5 321.1L561.7 324.9C560.1 347.1 546.2 357.2 534.2 359.1C532.7 359.2 531.2 359.3 529.6 359.3Z" fill="#111827"/>
<path d="M540.62 327.314C540.822 324.007 538.306 321.161 534.998 320.958C531.691 320.756 528.845 323.272 528.642 326.58C528.439 329.887 530.956 332.733 534.264 332.936C537.571 333.138 540.417 330.622 540.62 327.314Z" fill="#111827"/>
<path d="M625.674 315.7C625.877 312.393 623.36 309.547 620.053 309.345C616.745 309.142 613.9 311.659 613.697 314.966C613.494 318.273 616.011 321.119 619.318 321.322C622.626 321.525 625.471 319.008 625.674 315.7Z" fill="#111827"/>
<path d="M741.7 997.4C731.2 997.4 721 996 712.2 994.3C628.7 977.6 584.6 960.6 584.2 960.5C581.7 959.5 580.5 956.8 581.5 954.3C582.5 951.8 585.2 950.6 587.7 951.6C588.1 951.8 631.6 968.5 714.1 985C741.9 990.6 765.2 988.1 779.6 978C789.2 971.3 795.1 961.3 797.2 948.1C802.6 914.7 780.8 855.1 747 768.1C740.4 751.1 735 734.6 729.9 718.6C704.3 639.6 685.8 582.6 560.9 580.2C558.3 580.1 556.1 578 556.2 575.3C556.3 572.7 558.4 570.6 561 570.6H561.1C692.9 573.1 714.3 639.2 739.1 715.7C744.2 731.6 749.6 748 756.1 764.7C791.5 855.8 812.5 913.8 806.8 949.7C804.3 965.6 797 977.8 785.2 986C772.5 994.5 756.8 997.4 741.7 997.4Z" fill="#111827"/>
<path d="M435.8 788.9L366.1 663.9C364.8 661.6 361.9 660.8 359.6 662C357.3 663.3 356.5 666.2 357.7 668.5L423 785.4C427.2 786.7 431.5 787.8 435.8 788.9Z" fill="#111827"/>
<path d="M668.5 799.6C667.7 797.1 665 795.7 662.5 796.5C625.8 808.4 502.8 857.3 479.2 866.7C478 867.7 471.6 868.2 464.7 867.2C464.7 867.2 470.1 877.2 471.7 877.3C473.7 877.5 476.1 878.1 478.8 877.2C480.3 876.6 625.2 818.7 665.4 805.7C667.9 804.9 669.3 802.2 668.5 799.6Z" fill="#111827"/>
<path d="M443.1 1026.3C425.2 1026.3 409 1019.6 396.3 1002C359.8 951.2 251.5 758.6 250.4 756.7C249.1 754.4 249.9 751.5 252.2 750.2C254.5 748.9 257.4 749.7 258.7 752C259.8 753.9 367.8 946 404.1 996.4C434.7 1039 491.8 1005.9 542.1 976.7C547.7 973.5 553.1 970.3 558.3 967.4C603.5 942 669 891.4 682.5 880.9L635.7 702.7C635 700.1 636.6 697.5 639.1 696.8C641.7 696.1 644.3 697.7 645 700.2L692.6 881.5C693.1 883.3 692.4 885.3 690.9 886.5C690.1 887.1 614 947.1 563 975.7C557.8 978.6 552.4 981.7 546.9 984.9C513.9 1004.1 475.7 1026.3 443.1 1026.3Z" fill="#111827"/>
<path d="M355.7 842.3C354.1 842.3 352.5 841.5 351.6 840C346.5 831.4 348.2 825.3 350.5 821.6C358.2 809.5 386.3 807 409.9 807.3C407.8 806.6 405.9 805.9 404 805.3C379.8 797.2 369.8 793.8 368.4 786.5C367.8 783.2 369.2 780 372.7 777C382.6 768.5 457.3 786.6 584.2 827.5C586.7 828.3 582.9 829.3 582.1 831.9C581.3 834.4 578.6 835.8 576.1 835C469.3 800.6 388.1 779.9 378.7 784.5C378.5 784.7 378.4 784.8 378.3 784.9C381.5 787.6 394 791.8 407.1 796.2C417.4 799.7 430.3 804 445.2 809.6C447.5 810.4 448.7 812.8 448.2 815.2C447.6 817.6 445.4 819.1 443 818.9C412.2 815.6 365.7 815.8 358.7 826.8C358.2 827.5 356.8 829.8 359.9 835.1C361.3 837.4 360.5 840.3 358.2 841.7C357.4 842.1 356.5 842.3 355.7 842.3Z" fill="#111827"/>
<path d="M364.9 863.2C363.3 863.2 361.8 862.4 360.9 861C355.3 852.4 354.1 845.5 357.3 839.8C364.2 827.2 389.5 827.4 421.4 827.8C431.2 827.9 441.4 828 450.8 827.7C453.5 827.6 455.7 829.7 455.8 832.3C455.9 835 453.8 837.2 451.2 837.3C441.5 837.6 431.3 837.5 421.4 837.4C398.5 837.2 370 836.8 365.8 844.4C364.2 847.4 367.1 852.8 369.1 855.7C370.5 857.9 369.9 860.9 367.7 862.3C366.7 862.9 365.8 863.2 364.9 863.2Z" fill="#111827"/>
<path d="M394.4 880.7C378.3 880.7 366.2 878.1 362.9 869.2C360.8 863.5 362.4 859.5 364.1 857C371.5 846.3 395.8 845.4 434.9 844.9C443.5 844.8 452.3 844.7 460.9 844.4C463.5 844.2 465.8 846.4 465.9 849C466 851.7 463.9 853.9 461.3 854C452.7 854.3 443.8 854.4 435.1 854.5C409.2 854.8 377.1 855.3 372.1 862.5C371.8 862.9 371.3 863.7 372.1 865.9C375 873.8 407.4 870.9 428.9 868.9C446.7 867.3 463.6 865.8 473.8 867.8C476.4 868.3 478.1 870.8 477.6 873.5C477.1 876.1 474.6 877.8 471.9 877.3C463 875.5 446.1 877 429.7 878.5C417.1 879.6 404.9 880.7 394.4 880.7Z" fill="#111827"/>
<path d="M265.8 775.1C265 775.1 264.1 774.9 263.4 774.4C261.1 773.1 260.3 770.1 261.7 767.8C273.9 746.9 337.9 688 382.3 700C384.9 700.7 386.4 703.3 385.7 705.9C385 708.5 382.3 710 379.8 709.3C342.3 699.2 281.6 752.7 270 772.7C269 774.2 267.4 775.1 265.8 775.1Z" fill="#111827"/>
<path d="M726.4 693C726 691.5 725.9 690.1 726.1 688.7C705.9 681.8 666.3 696.6 644 711.9C641.8 713.4 641.3 716.4 642.8 718.6C643.7 720 645.2 720.7 646.8 720.7C647.7 720.7 648.7 720.4 649.5 719.9C675.2 702.2 714.4 691.5 725.7 699.1C726.4 699.5 727.1 699.8 727.8 699.9C727.5 697.5 727.1 695.2 726.4 693Z" fill="#111827"/>
<path d="M261.8 1040C259.4 1040 257.3 1038.2 257 1035.8C256.9 1035 247.2 954 235.4 746.6C232 686.6 244.9 640.5 273.8 609.6C319.3 561 394.1 560.4 438.9 560C446.2 559.9 452.5 559.9 458 559.6C460.6 559.5 462.9 561.5 463 564.2C463.1 566.8 461.1 569.1 458.4 569.2C452.8 569.4 446.4 569.5 439 569.6C395.8 570 323.5 570.6 280.8 616.2C253.8 645.1 241.7 688.8 245 746C256.9 953 266.5 1033.8 266.6 1034.6C266.9 1037.2 265 1039.6 262.4 1039.9C262.2 1040 262 1040 261.8 1040Z" fill="#111827"/>
<path d="M660.5 976.2C660.3 976.8 660.3 977.4 660.3 978L665.1 1028.4C665.3 1030.9 667.4 1032.7 669.9 1032.7C670.1 1032.7 670.2 1032.7 670.4 1032.7C673 1032.5 675 1030.1 674.7 1027.5L670.3 981C666.9 979.7 663.6 978.1 660.5 976.2Z" fill="#111827"/>
<path d="M569.9 554.2L576.3 576.6L558.7 701.5L523.5 669.5L502.7 711.1L433.9 563.8L459.5 541.4L523.5 669.5L569.9 554.2Z" fill="white"/>
<path d="M580.9 575.3L579.8 571.3L574.5 552.9C574.2 551.7 573.4 550.8 572.5 550.2C571.8 549.8 571 549.5 570.2 549.4C569.3 549.3 568.4 549.5 567.6 550C566.7 550.5 565.9 551.4 565.5 552.4L557.7 571.8L556.3 575.3L548.7 594.2L523.1 657.7L467.1 546L463.8 539.3C463.8 539.3 463.8 539.3 463.8 539.2C463.1 537.9 461.9 537 460.5 536.7C460.2 536.6 459.8 536.6 459.5 536.6C458.4 536.6 457.3 537 456.4 537.8L431 560.1L430.8 560.3C429.2 561.7 428.7 564 429.6 565.9L431.4 569.7L498.4 713.2C499.2 714.9 500.8 715.9 502.7 716H502.8C504.6 716 506.3 715 507.1 713.3L524.5 678.4L525 677.3L525.4 677.6L555.6 705C556.9 706.2 558.8 706.6 560.5 706C562.2 705.4 563.4 703.9 563.6 702.2L580.7 581L581.2 577.3C581.2 576.6 581.1 576 580.9 575.3ZM529.5 668.4L529.2 668.1L557.6 597.7L564.7 580.1L568.5 570.6L569.2 568.9L569.7 570.6L571.5 576.8L571 580.2L555.3 691.6L529.5 668.4ZM518.1 669.5L516.1 673.6L502.8 700.1L441.8 569.6L439.7 565.1L445.6 559.9L456.2 550.6L458 549.1L460.4 553.9L463.8 560.7L472.6 578.2L504 641L518.1 669.5Z" fill="#111827"/>
</svg>
