<svg viewBox="0 0 1475 1113" fill="none" xmlns="http://www.w3.org/2000/svg">
<path d="M833.8 921.3C857.9 929.5 882.7 935.4 907.6 940.6V900.3H785.2C800.8 908.6 817 915.6 833.8 921.3Z" fill="#111827"/>
<path d="M620.9 949.1C608.9 950.3 598.4 959 588 964.3C585.9 965.4 582.5 964.6 582.1 961.9C579.2 944.4 590.9 932.5 604.1 922.9C613.4 916.1 626 909.7 634 900.4H247.6V982H658.4C645.4 971.6 633.5 959.9 620.9 949.1Z" fill="#111827"/>
<path d="M569.4 928.3H531C524.8 928.3 524.8 937.9 531 937.9H569.4C575.6 937.9 575.6 928.3 569.4 928.3Z" fill="white"/>
<path d="M483 947.5H465.4C459.2 947.5 459.2 957.1 465.4 957.1H483C489.2 957.1 489.2 947.5 483 947.5Z" fill="white"/>
<path d="M369.3 920.3H314.9C308.7 920.3 308.7 929.9 314.9 929.9H369.3C375.5 929.9 375.5 920.3 369.3 920.3Z" fill="white"/>
<path d="M540.3 730.8H453.2V876.9H540.3V730.8Z" fill="white"/>
<path d="M540.3 881.8H453.2C450.5 881.8 448.4 879.7 448.4 877V730.9C448.4 728.2 450.5 726.1 453.2 726.1H540.3C543 726.1 545.1 728.2 545.1 730.9V877C545.1 879.6 542.9 881.8 540.3 881.8ZM458 872.2H535.5V735.7H458V872.2Z" fill="#111827"/>
<path d="M795.9 791.5H197.6C186.4 791.5 176.1 787.5 168.1 780.8C158 772.4 151.6 759.7 151.6 745.5V265.3C151.6 250.8 158.3 237.8 168.8 229.4C176.7 223.1 186.7 219.3 197.6 219.3H795.9C808.6 219.3 820.1 224.4 828.4 232.8C836.7 241.1 841.9 252.6 841.9 265.3V745.4C841.9 755.3 838.8 764.4 833.5 771.9C825.2 783.8 811.5 791.5 795.9 791.5Z" fill="white"/>
<path d="M795.1 796.3H198.4C169.9 796.3 146.8 773.1 146.8 744.7V266.2C146.8 237.7 170 214.6 198.4 214.6H795.1C823.6 214.6 846.7 237.8 846.7 266.2V744.7C846.7 773.1 823.6 796.3 795.1 796.3ZM198.4 224.1C175.2 224.1 156.4 242.9 156.4 266.1V744.6C156.4 767.8 175.2 786.6 198.4 786.6H795.1C818.3 786.6 837.1 767.8 837.1 744.6V266.2C837.1 243 818.3 224.2 795.1 224.2H198.4V224.1Z" fill="#111827"/>
<path d="M195.1 516.4C194.1 516.4 193 516.1 192.2 515.4C191 514.5 190.3 513.1 190.3 511.6V261.3C190.3 258.6 192.4 256.5 195.1 256.5H410.6C412 256.5 413.3 257.1 414.2 258.1C415.1 259.1 415.5 260.5 415.4 261.8C401.6 382.3 313.6 484.5 196.4 516.2C196 516.3 195.5 516.4 195.1 516.4ZM199.9 266.1V505.2C308.5 473.2 390 378.3 405.1 266.1H199.9Z" fill="#FFDF57"/>
<path d="M798.4 704.5H195.1C192.4 704.5 190.3 702.4 190.3 699.7V261.3C190.3 258.6 192.4 256.5 195.1 256.5H798.3C801 256.5 803.1 258.6 803.1 261.3V699.7C803.2 702.4 801 704.5 798.4 704.5ZM199.9 694.9H793.5V266.1H199.9V694.9Z" fill="#111827"/>
<path d="M635.1 883.2H358.4V861C358.4 857.8 361 855.2 364.2 855.2H629.3C632.5 855.2 635.1 857.8 635.1 861V883.2Z" fill="white"/>
<path d="M635.1 888H358.4C355.7 888 353.6 885.9 353.6 883.2C353.6 865.1 368.3 850.4 386.4 850.4H607.2C625.3 850.4 640 865.1 640 883.2C639.9 885.9 637.8 888 635.1 888ZM363.7 878.4H629.8C627.6 867.9 618.3 860 607.1 860H386.4C375.2 860 365.9 867.9 363.7 878.4Z" fill="#111827"/>
<path d="M751.9 758.6C760.737 758.6 767.9 751.437 767.9 742.6C767.9 733.763 760.737 726.6 751.9 726.6C743.063 726.6 735.9 733.763 735.9 742.6C735.9 751.437 743.063 758.6 751.9 758.6Z" fill="#FFDF57"/>
<path d="M751.9 763.5C740.4 763.5 731.1 754.2 731.1 742.7C731.1 731.2 740.4 721.9 751.9 721.9C763.4 721.9 772.7 731.2 772.7 742.7C772.7 754.2 763.4 763.5 751.9 763.5ZM751.9 731.4C745.7 731.4 740.7 736.4 740.7 742.6C740.7 748.8 745.7 753.8 751.9 753.8C758.1 753.8 763.1 748.8 763.1 742.6C763.1 736.5 758.1 731.4 751.9 731.4Z" fill="#FFDF57"/>
<path d="M474.8 606.8C437.3 606.8 403.9 606.7 401 606.7C398.4 606.7 396.2 604.6 396.2 601.9L395.5 427.9C395.5 425.3 397.6 423.1 400.3 423.1C417.2 423 463.4 420.7 475.1 410.9C479.8 407 487.4 392.9 495.5 378C513.4 344.9 533.8 307.4 554.5 313.5C558.7 314.7 561.9 317.6 563.6 321.9C571.8 341.9 546.1 394.7 535.6 414.7C568.8 414.8 619.8 417.4 619.9 453.8C620 466.1 612.6 474.3 604.6 479.2C612.3 483 619.5 489.6 620.1 500.3C620.4 505.3 618.7 509.9 615.4 513.6C612.8 516.5 609.3 518.5 605.8 520C613.5 524.2 621.1 531.1 621.2 542.1C621.2 552.3 615.2 558.5 608.2 562C613.1 566.2 615.1 572 615.2 577.2C615.2 590.3 603.3 604.6 583.2 605.8C571 606.6 519.9 606.8 474.8 606.8ZM405.8 597.1C432.5 597.2 562.9 597.5 582.5 596.3C596.9 595.4 605.5 585.9 605.5 577.3C605.5 570.8 600.4 566.6 591.9 566.1C589.3 566 587.4 563.8 587.4 561.3C587.4 558.7 589.4 556.6 592 556.5C592.8 556.5 611.6 555.5 611.5 542.2C611.4 528.2 587.9 523.7 587.6 523.6C585.2 523.1 583.5 521 583.7 518.5C583.9 516.1 585.9 514.1 588.3 514.1C592.2 513.9 603.5 512.4 608.3 507.2C609.9 505.4 610.6 503.4 610.5 500.9C609.7 487 589.8 484.8 589.6 484.8C587.2 484.6 585.4 482.6 585.3 480.3C585.2 477.9 586.8 475.8 589.1 475.4C590 475.2 610.3 470.7 610.3 454.1C610.2 441.7 601.2 433.5 582.8 428.9C566.3 424.8 545.6 424.6 527.6 424.6C525.9 424.6 524.3 423.7 523.5 422.3C522.6 420.8 522.6 419 523.4 417.5C538.7 389.7 560.7 340.3 554.7 325.9C554.1 324.3 553.2 323.5 551.8 323.1C538.4 319.2 517.7 357.5 504 382.9C494.7 400 487.4 413.4 481.4 418.5C467.1 430.5 421.1 432.5 405.3 432.9L405.8 597.1Z" fill="#14B8A6"/>
<path d="M536 606.1C535.8 606.1 535.5 606.1 535.3 606C527 604.8 519 599.8 514.6 593.2C511 587.9 509.9 581.9 511.4 576C516.4 555.7 547.4 556.1 574.7 556.5C581 556.6 586.9 556.7 592 556.5C594.6 556.3 596.9 558.5 597 561.1C597.1 563.7 595 566 592.4 566.1C587.1 566.3 581 566.2 574.6 566.1C553.2 565.8 523.9 565.4 520.7 578.3C519.9 581.6 520.5 584.8 522.6 587.9C525.6 592.3 531.1 595.8 536.8 596.6C539.4 597 541.2 599.4 540.8 602.1C540.4 604.4 538.4 606.1 536 606.1Z" fill="#14B8A6"/>
<path d="M533.3 567.2C533.1 567.2 532.8 567.2 532.6 567.1C524.7 565.9 516.4 560.2 511.4 552.5C507.4 546.2 506.1 539.5 507.8 533.5C513.2 514.3 544.8 514.3 572.7 514.3C578.3 514.3 583.6 514.3 588.3 514.1C590.9 513.9 593.2 516.1 593.3 518.7C593.4 521.3 591.3 523.6 588.7 523.7C583.9 523.9 578.4 523.9 572.7 523.9C550.7 523.9 520.5 523.9 517 536.1C515.7 540.6 518 545.1 519.5 547.3C522.9 552.6 528.9 556.9 534 557.6C536.6 558 538.4 560.4 538 563.1C537.7 565.4 535.6 567.2 533.3 567.2Z" fill="#14B8A6"/>
<path d="M533.1 526.3C532.6 526.3 532.2 526.2 531.7 526.1C504.1 517.7 505.6 500.6 507.6 493.7C513 474.7 547.7 474.9 578.4 475C584.8 475 590.8 475.1 595.7 474.9C598.4 474.7 600.6 476.9 600.7 479.5C600.8 482.1 598.7 484.4 596.1 484.5C591 484.7 584.8 484.7 578.3 484.6C556.6 484.5 520.2 484.3 516.8 496.3C514.2 505.6 520.1 512.6 534.5 516.9C537 517.7 538.5 520.4 537.7 522.9C537.1 524.9 535.2 526.3 533.1 526.3Z" fill="#14B8A6"/>
<path d="M527.7 486.7C527.5 486.7 527.2 486.7 527 486.6C518.5 485.3 510.2 480.1 505.8 473.3C502.4 468 501.4 462.1 503 456.4C508.4 437.2 540 437.2 567.9 437.2C573.5 437.2 578.8 437.2 583.5 437C586.1 436.8 588.4 439 588.5 441.6C588.6 444.2 586.5 446.5 583.9 446.6C579.1 446.8 573.6 446.8 567.9 446.8C545.9 446.8 515.7 446.8 512.2 459C511.3 462.1 511.9 465.2 513.8 468.1C516.7 472.6 522.6 476.2 528.3 477.1C530.9 477.5 532.7 479.9 532.3 482.6C532.1 485 530.1 486.7 527.7 486.7Z" fill="#14B8A6"/>
<path d="M620.7 375.7C619.7 375.7 618.6 375.4 617.8 374.7C615.7 373.1 615.3 370.1 617 368L649.6 326C651.2 323.9 654.2 323.5 656.3 325.2C658.4 326.8 658.8 329.8 657.1 331.9L624.5 373.9C623.6 375.1 622.2 375.7 620.7 375.7Z" fill="#111827"/>
<path d="M637.1 410.7C635.2 410.7 633.4 409.5 632.6 407.6C631.6 405.1 632.9 402.3 635.4 401.4L665.7 389.7C668.2 388.8 671 390 671.9 392.5C672.9 395 671.6 397.8 669.1 398.7L638.8 410.4C638.2 410.6 637.6 410.7 637.1 410.7Z" fill="#111827"/>
<path d="M354.9 172.7H0.400024V289.3H354.9V172.7Z" fill="#F76567"/>
<path d="M296.6 228.8H58.7C56 228.8 53.9 226.7 53.9 224C53.9 221.3 56 219.2 58.7 219.2H296.6C299.3 219.2 301.4 221.3 301.4 224C301.4 226.7 299.2 228.8 296.6 228.8Z" fill="white"/>
<path d="M315.2 158.7C333.205 158.7 347.8 144.104 347.8 126.1C347.8 108.095 333.205 93.5 315.2 93.5C297.196 93.5 282.6 108.095 282.6 126.1C282.6 144.104 297.196 158.7 315.2 158.7Z" fill="#FF98E1"/>
<path d="M115.8 829.9C109.4 821.4 103 812.8 96.6 804.3C92.9 799.4 84.5999 804.2 88.2999 809.1C94.6999 817.6 101.1 826.2 107.5 834.7C111.2 839.6 119.5 834.8 115.8 829.9Z" fill="#FF98E1"/>
<path d="M106.2 765.8C100.9 758.3 95.5 750.9 90.2 743.4C86.6 738.4 78.3 743.2 81.9 748.2C87.2 755.7 92.6 763.1 97.9 770.6C101.5 775.7 109.8 770.9 106.2 765.8Z" fill="#FF98E1"/>
<path d="M979.4 134.2C977.7 132.5 974.2 132.2 972.6 134.2C968.3 139.5 964.1 144.9 959.8 150.2C958.2 152.2 957.8 155 959.8 157C961.5 158.7 965 159 966.6 157C970.9 151.7 975.1 146.3 979.4 141C981 139 981.3 136.2 979.4 134.2Z" fill="#FF98E1"/>
<path d="M1200.8 537.2C1218.8 524 1240.8 513.8 1263.3 514.5L1232.8 404.9C1232.8 404.9 1284.1 371.2 1278.4 275.3C1276 234.5 1256.3 195.5 1225.6 172.1C1175.2 133.7 1061.6 123.6 1055.1 208.1C1058.7 281.9 1042.1 361 1048.7 408.2C1050.9 424 1057.2 441.2 1066.3 448.2C1093.5 469 1126.3 456.2 1126.3 456.2L1167 569.8C1176.7 557.3 1188.4 546.4 1200.8 537.2Z" fill="white"/>
<path d="M1170.7 565.4L1131 454.5C1130.6 453.3 1129.6 452.3 1128.5 451.8C1127.9 451.5 1127.2 451.4 1126.5 451.4C1125.9 451.4 1125.3 451.5 1124.8 451.7C1124.5 451.8 1094.2 463.3 1069.4 444.4C1062.3 439 1055.9 424.1 1053.6 407.5C1050.3 384 1053 351.2 1055.9 316.4C1058.7 282.7 1061.8 244.5 1060.1 208.1C1062.1 183.1 1074 165.5 1095.4 155.9C1133.5 138.8 1192.1 152.4 1222.8 175.8C1252.3 198.3 1271.4 235.6 1273.7 275.5C1279.1 367.2 1230.7 400.5 1230.2 400.9C1228.5 402 1227.7 404.2 1228.2 406.2L1258.4 514.6C1261.7 514.5 1265.1 514.6 1268.5 514.9L1238.4 406.8C1249.5 397.9 1288.3 360.5 1283.3 275C1280.8 232.3 1260.3 192.4 1228.6 168.2C1195.8 143.2 1134 128.1 1091.4 147.2C1066.8 158.2 1052.6 179.1 1050.4 207.7C1050.4 207.9 1050.4 208.1 1050.4 208.3C1052.1 244.1 1049 282.1 1046.2 315.6C1043.3 350.9 1040.5 384.2 1044 408.8C1046.1 424.1 1052.4 443.5 1063.5 452C1086.6 469.6 1112.9 465.1 1123.5 462.2L1163.8 574.5C1165.9 571.3 1168.2 568.3 1170.7 565.4Z" fill="#111827"/>
<path d="M1278.5 275.3C1276.1 234.5 1256.4 195.5 1225.7 172.1C1188.4 143.7 1116.5 130.8 1079.1 160.3C1097.8 162.2 1115.6 168 1130.2 179.6C1134.4 200.2 1138.6 220.8 1142.9 241.5C1145.1 252.3 1145.2 276.4 1158.2 280.8C1163.6 282.6 1167.8 281.6 1170.9 278.6C1171.3 282.2 1172.1 281.7 1172.4 285.3C1175.4 291.1 1178.1 296.9 1180.2 302.8C1190.6 331.3 1190.1 379.1 1217 398.8C1223.8 403.7 1227.5 409.1 1235.3 409.8C1247 399.7 1283.2 355.2 1278.5 275.3Z" fill="#111827"/>
<path d="M1040.8 364.1C1039.7 364.1 1038.6 363.7 1037.7 363C1012.8 342.5 1022.1 322 1037.5 288.1C1041.3 279.8 1045.6 270.4 1049.9 259.8C1050.9 257.3 1053.7 256.2 1056.2 257.2C1058.7 258.2 1059.8 261 1058.8 263.5C1054.4 274.2 1050.1 283.7 1046.3 292.1C1030.2 327.5 1025.6 340.5 1043.8 355.6C1045.8 357.3 1046.1 360.3 1044.4 362.4C1043.5 363.5 1042.2 364.1 1040.8 364.1Z" fill="#111827"/>
<path d="M1165.6 276.5C1208.8 241.7 1246.5 260.2 1254.4 284.9C1267.6 325.7 1236.4 355.7 1174 355.7" fill="white"/>
<path d="M1174 360.5C1171.3 360.5 1169.2 358.4 1169.2 355.7C1169.2 353 1171.3 350.9 1174 350.9C1208.1 350.9 1233.4 341.8 1245.4 325.4C1253.2 314.7 1254.7 301.2 1249.9 286.4C1246.5 276 1237.2 267.4 1225.5 264C1208.2 258.9 1188.1 264.7 1168.6 280.3C1166.5 282 1163.5 281.6 1161.9 279.6C1160.2 277.5 1160.6 274.5 1162.6 272.9C1192.2 249 1216.5 251.3 1228.3 254.9C1243.2 259.3 1254.7 270.1 1259 283.6C1264.8 301.5 1262.8 318 1253.1 331.3C1239.3 350 1211.2 360.5 1174 360.5Z" fill="#111827"/>
<path d="M1223.2 289.8C1206.3 288.7 1190.1 298.3 1183.1 313.7C1180.5 319.3 1188.8 324.2 1191.4 318.5C1197.2 305.9 1209.4 298.5 1223.2 299.4C1229.4 299.8 1229.4 290.2 1223.2 289.8Z" fill="#111827"/>
<path d="M1068.8 276.5C1072.11 276.5 1074.8 273.814 1074.8 270.5C1074.8 267.186 1072.11 264.5 1068.8 264.5C1065.49 264.5 1062.8 267.186 1062.8 270.5C1062.8 273.814 1065.49 276.5 1068.8 276.5Z" fill="#111827"/>
<path d="M1079.5 233.7C1076.7 232.5 1073.9 231.3 1071.1 230.1C1068.7 229.1 1066 229.4 1064.5 231.8C1063.3 233.8 1063.8 237.4 1066.2 238.4L1074.6 242C1077 243 1079.7 242.7 1081.2 240.3C1082.4 238.3 1081.9 234.8 1079.5 233.7Z" fill="#111827"/>
<path d="M1097.7 372C1095.8 379.2 1089.5 384.7 1082 385.2C1075.9 385.6 1075.8 395.2 1082 394.8C1093.8 394.1 1104 386.1 1107 374.5C1108.5 368.6 1099.3 366 1097.7 372Z" fill="#111827"/>
<path d="M987.2 971.1C986.8 971.1 986.3 971 985.9 970.9C984.9 970.6 884.3 941.8 822.5 921.6C794.3 912.4 772.8 897.6 757.1 886.9C743.6 877.7 733 870.4 728.6 874C728 874.5 727.4 875.1 727.4 875.7C727.5 878.9 736 885.4 741.1 889.3C747.7 894.3 753.5 898.7 755.3 903.5C756.2 906 755 908.8 752.5 909.7C750 910.6 747.2 909.4 746.3 906.9C745.5 904.7 739.6 900.3 735.3 897C726.8 890.5 717.9 883.8 717.8 876C717.8 873.6 718.5 870 722.5 866.7C732.5 858.5 745.1 867.2 762.5 879.1C777.7 889.5 798.5 903.8 825.4 912.6C887 932.7 987.5 961.5 988.5 961.8C991.1 962.5 992.5 965.2 991.8 967.7C991.2 969.8 989.3 971.1 987.2 971.1Z" fill="#111827"/>
<path d="M760.3 911.1C760.3 911.1 718.2 884.5 697 876.2C666.7 864.3 636 876.5 650.7 887.5C658.3 893.2 667.8 891 678.7 893.2C696.7 896.8 709.9 916 709.9 916" fill="white"/>
<path d="M709.9 920.7C708.4 920.7 706.9 920 705.9 918.6C705.8 918.4 693.5 900.9 677.7 897.8C674.2 897.1 670.8 896.9 667.5 896.7C660.8 896.3 653.9 895.8 647.8 891.3C639.6 885.2 642.3 878.7 643.3 876.9C649 866.7 674.4 862.2 698.7 871.7C720.1 880.1 761.1 906 762.8 907.1C765 908.5 765.7 911.5 764.3 913.7C762.9 915.9 759.9 916.6 757.7 915.2C757.3 914.9 715.7 888.7 695.2 880.7C679.2 874.4 662.6 875.3 654.6 879.4C652.4 880.5 651.7 881.5 651.6 881.8C651.6 881.9 652.1 882.7 653.5 883.7C657.3 886.5 662.1 886.8 668.1 887.2C671.6 887.4 675.5 887.7 679.6 888.5C699.3 892.4 713.2 912.4 713.8 913.3C715.3 915.5 714.7 918.5 712.6 920C711.8 920.4 710.8 920.7 709.9 920.7Z" fill="#111827"/>
<path d="M616.5 914.9C622.4 905.1 641.4 893.1 655.8 894.3C678.5 896.3 709.8 915.9 709.8 915.9" fill="white"/>
<path d="M709.9 920.7C709 920.7 708.1 920.5 707.4 920C707.1 919.8 676.8 901 655.5 899.1C642.5 898 625.5 909.4 620.7 917.4C619.3 919.7 616.4 920.4 614.1 919C611.8 917.6 611.1 914.7 612.5 912.4C619.6 900.7 640.4 888.1 656.3 889.5C679.9 891.5 711.1 911 712.5 911.8C714.7 913.2 715.4 916.2 714 918.4C713 919.9 711.5 920.7 709.9 920.7Z" fill="#111827"/>
<path d="M683.5 926.7C683.5 926.7 653.8 908.7 631.1 906.7C613.5 905.2 594 919.3 592.7 930.8" fill="white"/>
<path d="M592.6 935.6C592.4 935.6 592.3 935.6 592.1 935.6C589.5 935.3 587.6 933 587.8 930.3C589.4 915.1 612.2 900.3 631.4 901.9C655 903.9 684.7 921.8 685.9 922.6C688.2 924 688.9 926.9 687.5 929.2C686.1 931.5 683.2 932.2 680.9 930.8C680.6 930.6 651.9 913.3 630.5 911.5C614.9 910.1 598.2 923.1 597.3 931.4C597.1 933.8 595.1 935.6 592.6 935.6Z" fill="#111827"/>
<path d="M1029 1112.9C1005.6 1112.9 981.1 1104.8 948.1 1093.9C941.8 1091.8 935.1 1089.6 928.1 1087.4C857.3 1064.6 677.9 994.8 657.2 983.8C649.8 979.9 643.1 974.2 636.5 968.7C623.1 957.4 616.2 952.7 611.2 957.7C602.6 966.3 590.1 974.3 580.8 971C578.2 970.1 573.7 967.3 573 959.6C571.6 944 592.8 918.6 608.6 917.2C622.8 916 649.1 929.4 652.1 930.9C654.4 932.1 655.4 935 654.1 937.4C652.9 939.8 650 940.7 647.6 939.4C640.3 935.6 619 925.8 609.4 926.7C604.6 927.1 597.5 932.1 591.6 939.1C585.7 946.1 582.1 954 582.5 958.7C582.8 961.5 583.7 961.9 584 962C586.8 963 595 960.3 604.3 951C616.1 939.2 630.2 951 642.6 961.4C648.8 966.6 655.1 971.9 661.6 975.4C682.1 986.2 860.4 1055.6 930.9 1078.3C937.9 1080.6 944.6 1082.8 950.9 1084.9C1008.1 1103.8 1036.8 1113.2 1078.2 1088.4C1115 1066.3 1198.2 862 1237 757.1C1237.9 754.6 1240.7 753.3 1243.2 754.3C1245.7 755.2 1247 758 1246 760.5C1241.4 773 1132 1067.3 1083.1 1096.7C1063.8 1108.2 1046.7 1112.9 1029 1112.9Z" fill="#111827"/>
<path d="M1185.9 876.9C1148.8 876.9 1062.7 850.1 1045.4 816.9C1044.2 814.5 1045.1 811.6 1047.4 810.4C1049.8 809.2 1052.7 810.1 1053.9 812.4C1072.4 847.9 1178.5 873.1 1195 866.2C1197.4 865.2 1200.3 866.3 1201.3 868.8C1202.3 871.3 1201.2 874.1 1198.7 875.1C1195.7 876.4 1191.3 876.9 1185.9 876.9Z" fill="#111827"/>
<path d="M1469.7 1010.7C1467.4 1010.7 1465.3 1009 1465 1006.6C1464.8 1005.2 1444.5 869.8 1403.5 713.4C1364.3 564.3 1297 510.4 1247.7 523.2C1166.8 544.1 1143.2 601.1 1100.5 704.7L1097.3 712.5C1052.2 821.7 987.5 979.8 986.9 981.4C985.9 983.9 983.1 985 980.6 984C978.1 983 977 980.2 978 977.7C978.6 976.1 1043.3 818 1088.4 708.8L1091.6 701C1135.5 594.6 1159.7 536 1245.3 513.9C1295.3 501 1369.2 544.9 1412.8 711C1454 867.9 1474.3 1003.9 1474.5 1005.2C1474.9 1007.8 1473.1 1010.3 1470.5 1010.7C1470.2 1010.7 1470 1010.7 1469.7 1010.7Z" fill="#111827"/>
<path d="M1150.4 1058.8C1147.9 1058.8 1145.8 1056.9 1145.6 1054.4L1140 991.2C1139.8 988.6 1141.7 986.2 1144.4 986C1147 985.8 1149.4 987.7 1149.6 990.4L1155.2 1053.6C1155.4 1056.2 1153.5 1058.6 1150.8 1058.8C1150.7 1058.8 1150.6 1058.8 1150.4 1058.8Z" fill="#111827"/>
<path d="M922.3 767.1L1003.9 753.9C972.8 732.2 937.9 731 922.3 767.1Z" fill="white"/>
<path d="M922.3 771.9C921.7 771.9 921 771.8 920.4 771.5C918 770.4 916.9 767.6 917.9 765.2C924.6 749.7 935.3 739.5 948.9 735.6C965.8 730.7 986.4 735.8 1006.7 749.9C1008.9 751.4 1009.4 754.4 1007.9 756.6C1006.4 758.8 1003.4 759.3 1001.2 757.8C983.3 745.4 965.6 740.8 951.5 744.8C940.6 747.9 932.3 756 926.7 768.9C926 770.8 924.2 771.9 922.3 771.9Z" fill="#111827"/>
<path d="M1041.4 832.7C1026.3 807.2 1005.8 776.8 988.8 776.3C886.3 773 882.7 858.8 883.1 859.4H1031.1C1034.8 850.7 1038.3 841.8 1041.4 832.7Z" fill="#111827"/>
<path d="M1064 773.1C1008.8 753.9 951.2 734.7 922.3 767.1C890.5 802.9 916.6 798.4 936.7 783.9C958.3 768.3 1029.1 783.9 1000.3 805.5C973 826 952.7 841.1 967.9 848.7C979.9 854.7 1042.3 823.5 1042.3 823.5" fill="white"/>
<path d="M971.9 854.1C969.4 854.1 967.4 853.8 965.9 853C959.9 850 958.4 845.9 958.1 843.1C957.1 832 973.1 820.1 997.3 801.9C1004.1 796.8 1002.4 794.4 1001.6 793.4C993.9 782.9 953.7 777.7 939.6 787.8C930 794.7 911.9 804.3 904.8 796.5C899.6 790.7 903.9 780.6 918.8 763.9C950.3 728.4 1011.6 749.8 1065.6 768.6C1068.1 769.5 1069.4 772.2 1068.6 774.7C1067.7 777.2 1065 778.5 1062.5 777.7C1011.3 759.9 953.3 739.7 926 770.4C915.2 782.5 912.9 788 912.5 790C915.7 790 924.3 787.1 934 780.1C951.4 767.5 997.9 772.2 1009.3 787.8C1011.7 791.1 1016.1 799.9 1003.3 809.5C987 821.7 967.1 836.6 967.6 842.4C967.7 843 968.6 843.8 970.1 844.6C976 847.6 1011.1 834 1040.2 819.4C1042.6 818.2 1045.5 819.2 1046.6 821.5C1047.8 823.9 1046.8 826.8 1044.5 827.9C1031.2 834.5 990.3 854.1 971.9 854.1Z" fill="#111827"/>
<path d="M934.6 797.1C934.1 813.6 933.6 830.2 933.2 846.7C933 852.9 942.6 852.9 942.8 846.7C943.3 830.2 943.8 813.6 944.2 797.1C944.4 790.9 934.8 790.9 934.6 797.1Z" fill="white"/>
<path d="M910.1 0H576.3V198.5H910.1V0Z" fill="#FFDF57"/>
<path d="M821.3 72.6H655.7C653 72.6 650.9 70.5 650.9 67.8C650.9 65.1 653 63 655.7 63H821.3C824 63 826.1 65.1 826.1 67.8C826.1 70.4 824 72.6 821.3 72.6Z" fill="white"/>
<path d="M821.3 121.5H655.7C653 121.5 650.9 119.4 650.9 116.7C650.9 114 653 111.9 655.7 111.9H821.3C824 111.9 826.1 114 826.1 116.7C826.1 119.4 824 121.5 821.3 121.5Z" fill="white"/>
<path d="M910.1 198.5V263.4L830.2 183.5L910.1 198.5Z" fill="#FFDF57"/>
</svg>
