<svg viewBox="0 0 512 512" fill="none" xmlns="http://www.w3.org/2000/svg">
<path d="M147.216 512C77.5994 512 15.5942 511.826 10.2105 511.826C5.3837 511.826 1.29954 508.168 1.29954 503.465L0 200.401C0 195.873 3.89851 192.041 8.91092 192.041C40.2849 191.867 126.053 187.861 147.773 170.792C156.498 163.999 170.607 139.44 185.645 113.488C218.875 55.8362 256.747 -9.47939 295.175 1.14527C302.972 3.23537 308.913 8.28648 312.069 15.776C327.291 50.611 279.581 142.575 260.088 177.41C321.722 177.584 416.401 182.113 416.587 245.512C416.772 266.936 403.034 281.218 388.183 289.753C402.478 296.372 415.844 307.867 416.958 326.504C417.515 335.212 414.359 343.225 408.233 349.669C403.406 354.72 396.908 358.204 390.411 360.816C404.705 368.132 418.814 380.15 419 399.309C419 417.075 407.861 427.874 394.866 433.97C403.963 441.285 407.676 451.387 407.861 460.444C407.861 483.261 385.77 508.168 348.455 510.258C325.806 511.652 230.942 512 147.216 512ZM19.1214 495.105C48.4832 495.208 145.397 495.434 227.093 495.166C240.203 495.123 252.921 495.067 264.906 494.996C304.312 494.763 335.782 494.365 347.155 493.712C373.888 492.144 389.854 475.597 389.854 460.618C389.854 449.379 380.523 442.088 364.949 441.131C364.835 441.124 364.721 441.117 364.606 441.111C359.779 440.937 356.252 437.105 356.252 432.75C356.252 428.222 359.965 424.564 364.792 424.39C364.879 424.39 365.081 424.384 365.385 424.368C370.255 424.112 401.167 421.288 400.992 399.483C400.822 377.155 364.23 368.7 357.631 367.299C357.024 367.17 356.67 367.101 356.623 367.086C352.168 366.216 349.012 362.558 349.383 358.204C349.736 354.232 353.105 350.889 357.262 350.565C357.48 350.548 357.701 350.54 357.923 350.54C358.036 350.534 358.152 350.528 358.272 350.522C365.815 350.108 386.28 347.438 395.052 338.522C398.022 335.387 399.322 331.903 399.136 327.549C397.651 303.339 360.708 299.507 360.336 299.507C359.811 299.466 359.3 299.381 358.809 299.257C355.136 298.329 352.517 295.202 352.354 291.669C352.168 287.489 355.138 283.831 359.408 283.134C359.652 283.083 360.662 282.873 362.211 282.461C371.274 280.05 398.765 270.729 398.765 246.035C398.579 224.437 381.871 210.155 347.712 202.143C317.081 195.002 278.653 194.653 245.237 194.653C242.081 194.653 239.11 193.086 237.625 190.647C235.954 188.035 235.954 184.9 237.44 182.287C265.843 133.866 306.685 47.8242 295.546 22.743C294.432 19.9562 292.762 18.5627 290.163 17.866C265.286 11.0732 226.858 77.7822 201.424 122.023C184.16 151.807 170.607 175.146 159.469 184.029C132.922 204.93 47.525 208.413 18.1932 209.11L19.1214 495.105Z" fill="white"/>
<path d="M260.831 510.781C260.459 510.781 259.902 510.781 259.531 510.607C247.366 508.956 235.549 503.181 227.093 495.166C224.838 493.029 222.822 490.732 221.103 488.312C214.419 479.081 212.377 468.63 215.162 458.354C217.907 447.898 224.874 440.594 234.636 435.512C241.899 431.73 250.71 429.178 260.481 427.471C281.983 423.715 308.134 424.053 332.675 424.39C332.928 424.394 333.181 424.398 333.434 424.401C344.844 424.571 355.529 424.731 364.792 424.39C364.991 424.376 365.189 424.368 365.385 424.368C369.963 424.359 373.896 428.06 374.074 432.402C374.26 436.931 370.361 440.937 365.534 441.111C365.34 441.118 365.145 441.124 364.949 441.131C355.406 441.447 344.498 441.287 333.059 441.119C332.87 441.116 332.68 441.113 332.49 441.111C292.762 440.588 238.368 439.892 232.427 462.36C230.942 468.108 232.056 473.681 235.954 479.081C241.524 486.745 251.734 492.841 262.316 494.234C263.24 494.367 264.109 494.628 264.906 494.996C268.272 496.55 270.342 500.011 269.742 503.814C268.999 507.82 265.286 510.781 260.831 510.781Z" fill="white"/>
<path d="M255.818 443.027C255.447 443.027 254.89 443.027 254.519 442.853C247.828 441.899 240.983 439.314 234.636 435.512C227.069 430.979 220.21 424.716 215.162 417.423C207.736 406.45 205.323 394.78 208.479 384.33C211.548 374.092 219.176 366.988 229.77 362.059C237.079 358.658 245.8 356.293 255.41 354.648C277.367 350.888 303.965 350.888 328.962 350.888C339.097 350.888 348.702 350.888 357.262 350.565C357.483 350.557 357.703 350.549 357.923 350.54C358.04 350.531 358.156 350.525 358.272 350.522C362.954 350.377 367.024 354.133 367.205 358.552C367.391 363.081 363.492 367.087 358.665 367.261C358.323 367.274 357.978 367.287 357.631 367.299C348.968 367.609 339.137 367.609 328.962 367.609C306.696 367.609 279.906 367.609 259.089 371.052C257.717 371.279 256.371 371.521 255.054 371.779C239.699 374.785 228.28 379.957 225.558 388.858C223.145 396.696 227.415 404.534 230.199 408.366C236.511 417.597 247.65 425.087 257.118 426.306C258.35 426.484 259.486 426.889 260.481 427.471C263.385 429.171 265.097 432.383 264.544 435.885C263.987 439.892 260.088 443.027 255.818 443.027Z" fill="white"/>
<path d="M255.447 371.789C255.313 371.789 255.182 371.786 255.054 371.779C254.3 371.739 253.642 371.59 252.848 371.441C243.445 368.756 235.862 365.561 229.77 362.059C202.663 346.477 205.076 324.821 208.108 315.008C210.603 306.771 216.468 300.606 224.749 295.994C231.708 292.119 240.373 289.341 250.179 287.352C275.376 282.241 308.105 282.341 338.769 282.435C339.028 282.436 339.286 282.437 339.544 282.438C347.572 282.438 355.262 282.517 362.211 282.461C365.546 282.434 368.711 282.376 371.661 282.263C376.673 281.915 380.757 285.747 380.943 290.275C381.128 294.804 377.23 298.81 372.403 298.984C368.227 299.138 363.653 299.224 358.809 299.257C352.672 299.299 346.102 299.256 339.358 299.158C339.251 299.158 339.144 299.157 339.036 299.157C298.714 298.982 231.482 298.691 225.187 319.537C220.522 335.192 230.596 347.105 255.41 354.648C256.271 354.909 257.15 355.166 258.046 355.417C262.687 356.81 265.472 361.513 263.987 365.867C263.238 368.209 261.399 370.078 259.089 371.052C257.963 371.527 256.725 371.789 255.447 371.789Z" fill="white"/>
<path d="M244.816 302.406C244.445 302.401 243.888 302.394 243.519 302.216C237.024 301.201 230.608 299.032 224.749 295.994C216.405 291.668 209.192 285.582 204.492 278.565C198.31 269.256 196.599 258.958 199.708 249.068C210.203 215.753 268.861 216.48 320.652 217.121C331.047 217.25 340.885 217.371 349.615 217.131C354.446 216.843 358.661 220.727 358.783 225.257C358.905 229.788 354.951 233.745 350.122 233.86C341.207 234.098 330.997 233.971 320.416 233.84C279.578 233.335 223.518 232.64 216.722 253.807C214.976 259.186 216.014 264.598 219.469 269.693C224.742 277.596 235.606 284.002 246.165 285.7C247.682 285.938 249.046 286.52 250.179 287.352C252.643 289.162 254.01 292.156 253.455 295.371C253.025 299.546 249.271 302.461 244.816 302.406Z" fill="white"/>
<path d="M398.765 246.035C398.579 224.437 381.871 210.155 347.712 202.143C317.081 195.002 278.653 194.653 245.237 194.653C242.081 194.653 239.11 193.086 237.625 190.647C235.954 188.035 235.954 184.9 237.44 182.287C265.843 133.866 306.685 47.8242 295.546 22.743C294.432 19.9562 292.762 18.5627 290.163 17.866C265.286 11.0732 226.858 77.7822 201.424 122.023C184.16 151.807 170.607 175.146 159.469 184.029C132.922 204.93 47.525 208.413 18.1932 209.11L19.1214 495.105C48.4832 495.208 145.397 495.434 227.093 495.166C224.838 493.029 222.822 490.732 221.103 488.312C214.419 479.081 212.377 468.63 215.162 458.354C217.907 447.898 224.874 440.594 234.636 435.512C227.069 430.979 220.21 424.716 215.162 417.423C207.736 406.45 205.323 394.78 208.479 384.33C211.548 374.092 219.176 366.988 229.77 362.059C202.663 346.477 205.076 324.821 208.108 315.008C210.603 306.771 216.468 300.606 224.749 295.994C216.405 291.668 209.192 285.582 204.492 278.565C198.31 269.256 196.599 258.958 199.708 249.068C210.203 215.753 268.861 216.48 320.652 217.121C331.047 217.25 340.885 217.371 349.615 217.131C354.446 216.843 358.661 220.727 358.783 225.257C358.905 229.788 354.951 233.745 350.122 233.86C341.207 234.098 330.997 233.971 320.416 233.84C279.578 233.335 223.518 232.64 216.722 253.807C214.976 259.186 216.014 264.598 219.469 269.693C224.742 277.596 235.606 284.002 246.165 285.7C247.682 285.938 249.046 286.52 250.179 287.352C275.376 282.241 308.105 282.341 338.769 282.435L339.544 282.438C347.572 282.438 355.262 282.517 362.211 282.461C371.274 280.05 398.765 270.729 398.765 246.035Z" fill="white"/>
<path d="M357.262 350.565C357.48 350.548 357.701 350.54 357.923 350.54C358.04 350.531 358.156 350.525 358.272 350.522C365.815 350.108 386.28 347.438 395.052 338.522C398.022 335.387 399.322 331.903 399.136 327.549C397.651 303.339 360.708 299.507 360.336 299.507C359.811 299.466 359.3 299.381 358.809 299.257C352.672 299.299 346.102 299.256 339.358 299.158L339.036 299.157C298.714 298.982 231.482 298.691 225.187 319.537C220.522 335.192 230.596 347.105 255.41 354.648C277.367 350.888 303.965 350.888 328.962 350.888C339.097 350.888 348.702 350.888 357.262 350.565Z" fill="white"/>
<path d="M365.385 424.368C370.255 424.112 401.167 421.288 400.992 399.483C400.822 377.155 364.23 368.7 357.631 367.299C348.968 367.609 339.137 367.609 328.962 367.609C306.696 367.609 279.906 367.609 259.089 371.052C257.963 371.527 256.725 371.789 255.447 371.789C255.313 371.789 255.182 371.786 255.054 371.779C239.699 374.785 228.28 379.957 225.558 388.858C223.145 396.696 227.415 404.534 230.199 408.366C236.511 417.597 247.65 425.087 257.118 426.306C258.35 426.484 259.486 426.889 260.481 427.471C281.983 423.715 308.134 424.053 332.675 424.39L333.434 424.401C344.844 424.571 355.529 424.731 364.792 424.39C364.991 424.376 365.189 424.368 365.385 424.368Z" fill="white"/>
<path d="M347.155 493.712C373.888 492.144 389.854 475.597 389.854 460.618C389.854 449.379 380.523 442.088 364.949 441.131C355.406 441.447 344.498 441.287 333.059 441.119L332.49 441.111C292.762 440.588 238.368 439.892 232.427 462.36C230.942 468.108 232.056 473.681 235.954 479.081C241.524 486.745 251.734 492.841 262.316 494.234C263.24 494.367 264.109 494.628 264.906 494.996C304.312 494.763 335.782 494.365 347.155 493.712Z" fill="white"/>
<path d="M147.216 512C77.5994 512 15.5942 511.826 10.2105 511.826C5.38369 511.826 1.29954 508.168 1.29954 503.465L0.649768 351.933L0 200.401C0 195.873 3.89851 192.041 8.91092 192.041C40.2849 191.867 126.053 187.861 147.773 170.792C156.498 163.999 170.607 139.44 185.645 113.488C218.875 55.8362 256.747 -9.47939 295.175 1.14527C302.972 3.23537 308.913 8.28648 312.069 15.776C327.291 50.611 279.581 142.575 260.088 177.41C321.722 177.584 416.401 182.113 416.587 245.512C416.772 266.936 403.034 281.218 388.183 289.753C402.478 296.372 415.844 307.867 416.958 326.504C417.515 335.212 414.359 343.225 408.233 349.669C403.406 354.72 396.908 358.204 390.411 360.816C404.705 368.132 418.814 380.15 419 399.309C419 417.075 407.861 427.873 394.866 433.97C403.963 441.285 407.676 451.387 407.861 460.444C407.861 483.261 385.77 508.168 348.455 510.258C325.806 511.652 230.942 512 147.216 512ZM19.1214 495.105C48.4832 495.208 145.397 495.434 227.093 495.166C283.311 494.981 332.323 494.564 347.155 493.712C373.888 492.144 389.854 475.597 389.854 460.618C389.854 449.297 380.386 441.982 364.606 441.111C359.779 440.937 356.252 437.105 356.252 432.75C356.252 428.222 359.965 424.564 364.792 424.39C366.277 424.39 401.178 422.648 400.992 399.483C400.807 375.099 357.18 367.261 356.623 367.086C352.168 366.216 349.012 362.558 349.383 358.204C349.755 354.023 353.467 350.54 357.923 350.54C365.163 350.191 386.141 347.579 395.052 338.522C398.022 335.387 399.322 331.903 399.136 327.549C397.651 303.339 360.708 299.507 360.336 299.507C355.881 299.158 352.539 295.675 352.354 291.669C352.168 287.489 355.138 283.831 359.408 283.134C359.652 283.083 360.662 282.873 362.211 282.461C371.274 280.05 398.765 270.729 398.765 246.035C398.579 224.437 381.871 210.155 347.712 202.143C317.081 195.002 278.653 194.653 245.237 194.653C242.081 194.653 239.11 193.086 237.625 190.647C235.954 188.035 235.954 184.9 237.44 182.287C265.843 133.866 306.685 47.8242 295.546 22.743C294.432 19.9562 292.762 18.5627 290.163 17.866C265.286 11.0732 226.858 77.7822 201.424 122.023C184.159 151.806 170.607 175.146 159.469 184.029C132.922 204.93 47.525 208.413 18.1932 209.11L19.1214 495.105Z" fill="#14B8A6"/>
<path d="M260.831 510.781C260.459 510.781 259.902 510.781 259.531 510.606C247.366 508.956 235.549 503.181 227.093 495.166C224.838 493.028 222.822 490.732 221.103 488.312C214.419 479.081 212.377 468.63 215.162 458.354C217.907 447.898 224.874 440.594 234.636 435.512C257.883 423.409 296.982 423.899 332.675 424.39C344.371 424.564 355.324 424.738 364.792 424.39C369.618 424.042 373.888 427.873 374.074 432.402C374.26 436.931 370.361 440.937 365.534 441.111C355.695 441.459 344.371 441.285 332.49 441.111C292.762 440.588 238.368 439.892 232.427 462.36C230.942 468.108 232.056 473.681 235.954 479.081C241.524 486.745 251.734 492.841 262.316 494.234C267.143 494.931 270.484 499.111 269.742 503.814C268.999 507.82 265.286 510.781 260.831 510.781Z" fill="#14B8A6"/>
<path d="M255.818 443.027C255.447 443.027 254.89 443.027 254.519 442.852C247.828 441.899 240.983 439.314 234.636 435.512C227.069 430.979 220.21 424.716 215.162 417.423C207.736 406.45 205.323 394.78 208.479 384.33C211.548 374.092 219.176 366.988 229.77 362.059C253.78 350.888 293.024 350.888 328.962 350.888C339.358 350.888 349.198 350.888 357.923 350.54C362.75 350.191 367.019 354.023 367.205 358.552C367.391 363.08 363.492 367.086 358.665 367.261C349.754 367.609 339.544 367.609 328.962 367.609C288.12 367.609 232.056 367.609 225.558 388.858C223.145 396.696 227.415 404.534 230.199 408.366C236.511 417.597 247.65 425.087 257.118 426.306C261.945 427.003 265.286 431.183 264.544 435.885C263.987 439.892 260.088 443.027 255.818 443.027Z" fill="#14B8A6"/>
<path d="M255.447 371.789C254.519 371.789 253.776 371.615 252.848 371.441C243.445 368.756 235.862 365.561 229.77 362.059C202.663 346.477 205.076 324.821 208.108 315.008C210.603 306.771 216.468 300.606 224.749 295.994C231.708 292.119 240.373 289.341 250.179 287.352C275.376 282.241 308.104 282.341 338.769 282.435C339.028 282.436 339.286 282.437 339.544 282.438C347.572 282.438 355.262 282.517 362.211 282.461C365.546 282.434 368.711 282.376 371.661 282.263C376.673 281.915 380.757 285.747 380.943 290.275C381.128 294.804 377.23 298.81 372.403 298.984C362.935 299.333 351.425 299.332 339.358 299.158C299.073 298.984 231.499 298.636 225.187 319.537C220.36 335.735 231.313 347.927 258.046 355.417C262.687 356.81 265.472 361.513 263.987 365.867C262.873 369.351 259.345 371.789 255.447 371.789Z" fill="#14B8A6"/>
<path d="M244.816 302.406C244.445 302.401 243.888 302.394 243.519 302.216C237.024 301.201 230.608 299.032 224.749 295.994C216.405 291.668 209.192 285.582 204.492 278.565C198.31 269.256 196.599 258.958 199.708 249.068C210.203 215.753 268.861 216.48 320.652 217.121C331.047 217.25 340.885 217.371 349.615 217.131C354.446 216.843 358.661 220.727 358.783 225.257C358.905 229.788 354.951 233.745 350.122 233.86C341.207 234.098 330.997 233.971 320.416 233.84C279.578 233.334 223.518 232.64 216.722 253.807C214.976 259.186 216.014 264.598 219.469 269.693C224.742 277.596 235.606 284.002 246.165 285.7C247.682 285.938 249.046 286.52 250.179 287.352C252.643 289.162 254.01 292.156 253.455 295.371C253.025 299.546 249.271 302.461 244.816 302.406Z" fill="#14B8A6"/>
<path d="M416.192 147C411.012 147 406.104 144.07 403.923 139.431C401.196 133.327 404.741 126.491 411.557 124.293L494.173 95.7268C500.989 93.5294 508.623 96.4593 511.077 102.563C513.804 108.667 510.259 115.504 503.443 117.701L420.827 146.268C419.191 146.756 417.555 147 416.192 147Z" fill="#111827"/>
<path d="M354.388 111C351.995 111 349.364 110.354 347.45 108.847C342.427 105.403 341.47 98.9442 345.537 94.4233L423.522 4.00494C427.35 -0.515978 434.526 -1.37708 439.55 2.28271C444.573 5.72722 445.53 12.1857 441.463 16.7066L363.478 107.125C361.325 109.708 357.976 111 354.388 111Z" fill="#111827"/>
</svg>
