<svg viewBox="0 0 1206 955" fill="none" xmlns="http://www.w3.org/2000/svg">
<path d="M263.074 345.461L58.113 396.828L109.48 601.79L314.441 550.423L263.074 345.461Z" fill="#853EF3"/>
<path d="M186.1 545.7C173.2 545.7 160.5 542.2 149.2 535.4C132.7 525.5 121 509.8 116.4 491.1C106.7 452.6 130.2 413.4 168.8 403.7C207.3 394 246.5 417.5 256.2 456.1C260.9 474.8 258 494.1 248.1 510.6C238.2 527.1 222.5 538.8 203.8 543.4C197.9 545 192 545.7 186.1 545.7ZM186.3 411.2C181.3 411.2 176.2 411.8 171.1 413.1C137.7 421.5 117.4 455.4 125.7 488.8C129.8 505 139.9 518.6 154.2 527.2C168.5 535.8 185.3 538.3 201.5 534.2C217.7 530.1 231.3 520 239.9 505.7C248.5 491.4 251 474.6 246.9 458.4C239.7 430.2 214.2 411.2 186.3 411.2Z" fill="#FFDF57"/>
<path d="M414.2 0.699951H238.9V176H414.2V0.699951Z" fill="#FF98E1"/>
<path d="M358.5 134.4H294.5C291.8 134.4 289.7 132.3 289.7 129.6V46.4C289.7 43.7 291.8 41.5999 294.5 41.5999C297.2 41.5999 299.3 43.7 299.3 46.4V124.8H358.5C361.2 124.8 363.3 126.9 363.3 129.6C363.3 132.3 361.2 134.4 358.5 134.4Z" fill="white"/>
<path d="M972.647 153.961L921.752 356.767L1124.56 407.662L1175.45 204.856L972.647 153.961Z" fill="#00DA9F"/>
<path d="M1085.8 345.4C1085.4 345.4 1085 345.4 1084.6 345.3L989.5 321.4C987.6 320.9 986.2 319.4 985.9 317.4C985.6 315.4 986.5 313.6 988.2 312.6L1101.2 245L1007.9 221.6C1005.3 221 1003.8 218.3 1004.4 215.8C1005 213.2 1007.7 211.7 1010.2 212.3L1114.8 238.5C1116.7 239 1118.1 240.5 1118.4 242.5C1118.7 244.5 1117.8 246.3 1116.1 247.3L1003.1 314.9L1086.9 335.9C1089.5 336.5 1091 339.2 1090.4 341.7C1089.9 343.9 1087.9 345.4 1085.8 345.4Z" fill="#FFDF57"/>
<path d="M879.3 95.0999H807.3C804.6 95.0999 802.5 92.9999 802.5 90.2999C802.5 87.5999 804.7 85.4999 807.3 85.4999H879.3C882 85.4999 884.1 87.5999 884.1 90.2999C884.1 92.9999 882 95.0999 879.3 95.0999Z" fill="#853EF3"/>
<path d="M1055.4 95.0999H917.8C915.1 95.0999 913 92.9999 913 90.2999C913 87.5999 915.1 85.4999 917.8 85.4999H1055.4C1058.1 85.4999 1060.2 87.5999 1060.2 90.2999C1060.2 92.9999 1058 95.0999 1055.4 95.0999Z" fill="#853EF3"/>
<path d="M914.5 172.8H850.5C847.8 172.8 845.7 170.6 845.7 168C845.7 165.3 847.9 163.2 850.5 163.2H914.5C917.2 163.2 919.3 165.3 919.3 168C919.3 170.6 917.2 172.8 914.5 172.8Z" fill="#853EF3"/>
<path d="M152.7 286.4H5.40009C2.70009 286.4 0.600098 284.3 0.600098 281.6C0.600098 278.9 2.70009 276.8 5.40009 276.8H152.7C155.4 276.8 157.5 278.9 157.5 281.6C157.5 284.3 155.3 286.4 152.7 286.4Z" fill="#853EF3"/>
<path d="M122.3 225.6H5.40009C2.70009 225.6 0.600098 223.5 0.600098 220.8C0.600098 218.1 2.70009 216 5.40009 216H122.2C124.9 216 127 218.1 127 220.8C127 223.5 124.9 225.6 122.3 225.6Z" fill="#853EF3"/>
<path d="M227.9 323.2C227.1 323.2 226.3 323 225.5 322.6C223.2 321.3 222.4 318.3 223.7 316L284.5 210.4C285.8 208.1 288.8 207.3 291.1 208.6C293.4 209.9 294.2 212.9 292.9 215.2L232.1 320.8C231.2 322.4 229.5 323.2 227.9 323.2Z" fill="#853EF3"/>
<path d="M1201 592.1H1150.6C1147.9 592.1 1145.8 590 1145.8 587.3C1145.8 584.6 1148 582.5 1150.6 582.5H1201C1203.7 582.5 1205.8 584.6 1205.8 587.3C1205.8 590 1203.7 592.1 1201 592.1Z" fill="#853EF3"/>
<path d="M26.4 471.9C21.1 465.5 15.7 459.1 10.4 452.7C6.40001 447.9 -0.299973 454.8 3.60003 459.5C8.90003 465.9 14.3 472.3 19.6 478.7C23.6 483.4 30.3 476.6 26.4 471.9Z" fill="#FFDF57"/>
<path d="M1158.5 520.9C1144.6 540.1 1130.8 559.3 1116.9 578.5C1113.3 583.5 1121.6 588.3 1125.2 583.3C1139.1 564.1 1152.9 544.9 1166.8 525.7C1170.4 520.7 1162.1 515.9 1158.5 520.9Z" fill="#FFDF57"/>
<path d="M410.4 38.2999C386.6 38.2999 366.4 22.4 359.8 0.699951H349.8C356.6 27.8 381.2 47.9 410.3 47.9C411.6 47.9 412.8 47.8999 414.1 47.7999V38.2C412.9 38.3 411.6 38.2999 410.4 38.2999Z" fill="white"/>
<path d="M951.2 838.4C950.6 835.8 948.1 834.2 945.5 834.7C944.8 834.8 944.2 835.1 943.7 835.5C936.8 826 925.9 810.9 921.1 803.2C887.2 748.3 857.7 691.5 821.3 638.1C802.5 610.5 789.7 580 766.4 556.2C757.8 547.4 740.2 546.4 733.6 535.6L712.2 553.8L589.8 500C577.9 521.9 557.9 526.3 538.4 544.1C508.1 590.8 476.2 652.3 443.4 697.3C437 708.8 430.3 720.1 423.5 731.3C423.2 731.3 422.8 731.3 422.5 731.3C419.9 731.7 418.1 734.1 418.4 736.7L444.2 911.9H449.3H453.9H957.5H959.2H967.4L951.2 838.4Z" fill="#111827"/>
<path d="M800.4 306.7C793.7 287.9 773 279.4 756.4 285.2C765.3 270.3 777.1 256.6 778 238.5C778.9 221.2 768.9 208.1 751.5 205.7C717.3 201.2 682.8 229.3 661.1 257.5C655.1 247.2 639.1 241 625.2 246.2C605.9 253.4 590.7 273.9 578.5 289.3C562.9 309 550.1 330.3 539.4 353C538 356 539.7 358.7 542 359.8C542 360 542 360.1 542 360.3C543.5 373.3 558.5 375.3 568.8 376.5C599.3 380 630.3 380.9 660.9 383.1C668.3 383.6 675.8 384.3 683.4 384.9C686.8 385.2 690.2 385.4 693.6 385.6C710.7 386.5 727.8 386.4 744.4 382.5C762.2 378.3 781.2 367.4 792.7 352.3C793.9 350.8 794.9 349.2 795.9 347.6C796.6 346.5 797.3 345.3 797.9 344.1C800.7 338.7 802.6 332.9 803.2 326.7C803.6 320.3 802.9 313.6 800.4 306.7Z" fill="#111827"/>
<path d="M549.6 492.9C557.6 593.7 610.4 612.9 671.2 616.1C732 619.3 764 587.3 767.2 508.9C770.4 430.5 749.6 296.6 632.8 316.8C549.1 331.3 545.2 437 549.6 492.9Z" fill="white"/>
<path d="M762.5 508.7C762 520.7 760.8 531.6 759 541.4C754.5 565 746.1 582.2 733.5 593.8C719 607 698.7 612.8 671.6 611.3C643.5 609.8 616.2 605 595 588.1C573.7 571.2 558.5 542.2 554.5 492.5C550.8 445.9 551.1 335.8 633.8 321.6C641.4 320.3 648.7 319.6 655.6 319.6C678.4 319.6 697.8 326.6 713.7 340.5C750.3 372.6 763 438.7 763 494.6C762.8 499.3 762.7 504.1 762.5 508.7ZM719.9 333.2C696.9 313.1 667.4 305.9 632 312C541.5 327.6 540.9 443.9 544.8 493.2C544.9 494.6 545 496 545.2 497.4C546.4 510.1 548.3 521.5 550.9 531.7C569.4 604.7 621.1 618.2 671 620.9C673.9 621.1 676.7 621.1 679.4 621.1C705.1 621.1 724.9 614.4 739.9 600.8C752.9 589 761.9 572 767.1 549.5C769.8 537.6 771.5 524.1 772.1 509C772.2 505.5 772.4 501 772.4 495.7C772.5 456.6 766.7 374.4 719.9 333.2Z" fill="#111827"/>
<path d="M663.3 483.5C662.3 483.5 661.4 483.2 660.5 482.6C633.5 463.4 634.7 431.2 645.8 382.1C646.4 379.5 649 377.9 651.5 378.5C654.1 379.1 655.7 381.7 655.1 384.2C643.1 436.8 646 460.5 666 474.7C668.2 476.2 668.7 479.2 667.1 481.4C666.3 482.8 664.8 483.5 663.3 483.5Z" fill="#111827"/>
<path d="M643.3 501.4C636.3 498.4 629.1 499.3 623.2 504.1C621.2 505.7 621.5 509.2 623.2 510.9C625.2 512.9 628 512.5 630 510.9C632.2 509.1 635.8 508.5 638.5 509.7C640.9 510.7 643.7 510.4 645.1 508C646.2 505.9 645.7 502.4 643.3 501.4Z" fill="#111827"/>
<path d="M623.6 469.2C621.8 465.9 618.7 463.6 614.9 463.2C608.4 462.4 603 467 597.6 469.7C583.1 476.9 567 468.1 558.2 456.1C539.1 430 553.3 393.8 547.5 364.3C545.4 353.5 540.9 343.3 533 335.7C533.6 331 531.5 325.7 527.9 322.4C518.3 313.5 503.1 320.7 493.8 326.4C468.8 341.7 450.3 365.4 436 390.5C419 420.4 407.4 453.1 392 483.8C376.4 514.8 356.1 543 334.5 570.1C329.2 576.8 323.8 583.4 318.4 589.9C313.3 596.1 308.5 603 302.5 608.3C296.6 613.6 288.3 615.9 282.8 609.1C279.6 605.2 278 600 276.1 595.3C273 587.5 268.6 578.3 258.9 578C245.7 577.6 236.5 592.3 229.7 601.5C209.4 628.7 190.9 657.2 174.3 686.8C157.9 716 142.6 746.3 131.4 777.9C120.7 807.9 114 840.8 120 872.5C124.7 897.7 137.8 922.3 157.7 938.7C179 956.2 210.3 951.1 236.8 944C266.9 935.9 291 915 311.2 892C355.4 841.6 388.1 794.4 422.8 737.1C440.5 707.8 457.6 678.2 474.6 648.6C491.4 619.4 507.4 589.3 525.7 561C534.2 547.9 544.3 537.5 558.2 530.4C569.4 524.7 581.4 520.8 592.8 515.6C603 510.9 612.9 505 619.7 496C625.2 488.6 628.4 477.8 623.6 469.2Z" fill="white"/>
<path d="M372.5 528.7C385.6 510.1 394.6 492.2 402.9 471C408.2 457.4 409.3 441.7 415.3 428.8C415.7 427.9 416.2 426.9 416.7 426C389.5 423.3 370.4 411.3 325 448.1C291.3 492.3 262.5 540 234.9 588.2C253.5 594.6 272.9 611 293.6 628.1C319.6 598.8 349.8 560.8 372.5 528.7Z" fill="#111827"/>
<path d="M575.2 331.2C591.2 332.8 628 342.4 616.8 374.4C605.6 406.4 575.2 331.2 575.2 331.2Z" fill="white"/>
<path d="M609.5 387.2C594.3 387.2 577.4 349.4 570.8 333.1C570.2 331.5 570.4 329.8 571.4 328.4C572.4 327.1 574 326.4 575.7 326.5C581.1 327 608.3 330.6 619.3 347.8C624.4 355.9 625.1 365.4 621.4 376.1C618.2 385.2 613.3 387.2 609.7 387.2C609.6 387.2 609.5 387.2 609.5 387.2ZM583 337.3C592.8 359.5 604.5 377.6 609.4 377.6C609.7 377.6 610.9 377 612.3 372.9C615.1 365 614.7 358.5 611.2 353C605.9 344.6 594 339.6 583 337.3Z" fill="#111827"/>
<path d="M515.5 357.1L583.2 344C583.2 328 581.6 315.2 549.6 321.6L523.6 317.2C523 330.9 518.9 343.9 515.5 357.1Z" fill="white"/>
<path d="M556 363.2C555.3 363.2 554.5 363 553.8 362.7C552.4 362 551.4 360.7 551.2 359.1L546.4 327.1C546.3 326.5 546.3 325.9 546.5 325.3C545.7 324.6 545.1 323.7 544.9 322.6C544.4 320 546.1 317.5 548.7 316.9C564.2 313.8 574.3 314.7 580.6 319.9C587.5 325.5 588 334.5 588 344C588 345.8 587 347.4 585.4 348.2L558.2 362.6C557.5 363 556.8 363.2 556 363.2ZM555.9 325.4C555.9 325.5 555.9 325.6 556 325.7L559.8 351L578.4 341.1C578.3 335.1 577.6 329.9 574.5 327.3C571.3 324.7 565.1 324.1 555.9 325.4Z" fill="#111827"/>
<path d="M210.8 954.1C172.8 954.1 140.7 938 123.9 910.1C103.4 876.1 94.9 809.3 171 684.1C186 659.4 199.7 636.7 212.3 615.7C310.5 452.2 343.6 397.2 416.6 419.5C419.1 420.3 420.6 423 419.8 425.5C419 428 416.3 429.5 413.8 428.7C348 408.5 315.9 462 220.5 620.7C207.9 641.7 194.2 664.5 179.2 689.1C105.5 810.2 112.9 873.4 132.1 905.2C148.3 932.1 180.7 946.7 218.8 944.3C242.3 942.8 285.9 915.6 330.5 858.1C387 785.2 433.1 711.2 460.6 667C469.7 652.4 476.9 640.8 482.3 632.7C493.8 615.5 503.2 596.5 511.6 579.7C524.7 553.4 534.1 534.4 546.3 530C564.5 523.4 605.5 503.1 615.7 482.7C618.8 476.6 618.7 472.9 617.4 472C614.8 470.3 606.7 472.2 601.2 478.4C599.5 480.4 596.4 480.6 594.4 478.9C592.4 477.2 592.2 474.1 593.9 472.1C602.1 462.8 615.2 459.1 622.6 464C625.5 466 631.6 472.2 624.2 487C611.8 511.8 565 533.4 549.5 539C541 542.1 530.9 562.4 520.1 583.9C511.6 600.9 502 620.2 490.2 638C484.8 646 477.7 657.5 468.6 672.1C441 716.5 394.8 790.7 337.9 864C297.1 916.6 250.5 951.9 219.2 953.9C216.5 954 213.6 954.1 210.8 954.1Z" fill="#111827"/>
<path d="M543.2 494.5C586.057 494.5 620.8 459.757 620.8 416.9C620.8 374.043 586.057 339.3 543.2 339.3C500.343 339.3 465.6 374.043 465.6 416.9C465.6 459.757 500.343 494.5 543.2 494.5Z" fill="white"/>
<path d="M543.2 334.4C532.9 334.4 523 336.3 513.9 339.8C501.9 344.4 491.2 351.7 482.6 361C477.9 371.7 475.4 382.8 474 394.1C483.6 365.1 511 344.1 543.2 344.1C583.4 344.1 616 376.8 616 416.9C616 457 583.3 489.7 543.2 489.7C512.3 489.7 485.8 470.3 475.2 443C474 439.8 472.9 436.5 472.2 433C472.1 441.2 472 449.4 471.6 457.5C472.7 459.5 473.9 461.4 475.2 463.2C490.1 484.9 515 499.2 543.2 499.2C588.7 499.2 625.6 462.2 625.6 416.8C625.6 371.4 588.7 334.4 543.2 334.4Z" fill="#111827"/>
<path d="M543.2 474.5C575.012 474.5 600.8 448.712 600.8 416.9C600.8 385.088 575.012 359.3 543.2 359.3C511.389 359.3 485.6 385.088 485.6 416.9C485.6 448.712 511.389 474.5 543.2 474.5Z" fill="white"/>
<path d="M543.2 479.3C508.8 479.3 480.8 451.3 480.8 416.9C480.8 382.5 508.8 354.5 543.2 354.5C577.6 354.5 605.6 382.5 605.6 416.9C605.6 451.3 577.6 479.3 543.2 479.3ZM543.2 364C514.1 364 490.4 387.7 490.4 416.8C490.4 445.9 514.1 469.6 543.2 469.6C572.3 469.6 596 445.9 596 416.8C596 387.7 572.3 364 543.2 364Z" fill="#111827"/>
<path d="M620 409.7C618.6 409.7 617.3 409.1 616.3 408C614.6 406 614.8 402.9 616.9 401.2L648.1 374.8C649.9 373.3 652.6 373.3 654.4 374.9L684.4 401.3C686.4 403.1 686.6 406.1 684.8 408.1C683.1 410.1 680 410.3 678 408.5L651.1 384.8L623.1 408.5C622.2 409.3 621.1 409.7 620 409.7Z" fill="#111827"/>
<path d="M528.8 431.3C527.6 431.3 526.3 430.8 525.4 429.9C523.5 428 523.5 425 525.4 423.1L559 389.5C560.9 387.6 563.9 387.6 565.8 389.5C567.7 391.4 567.7 394.4 565.8 396.3L532.2 429.9C531.3 430.8 530 431.3 528.8 431.3Z" fill="#00DA9F"/>
<path d="M223.1 741C222.2 741 221.3 740.8 220.5 740.2C218.3 738.8 217.6 735.8 219 733.6C219.8 732.4 296.5 612.7 344 549.2C371.2 512.9 390.8 472.2 408.1 436.2C421 409.4 433.2 384 446.4 365.2C468.9 333.3 497.2 312.8 515.4 315.5C521.8 316.4 526.5 320.3 528.5 326.4C530.9 333.7 523.4 339 513 346.2C501.1 354.4 484.9 365.7 480.6 382C477.6 393.3 478.4 409.5 479.3 426.6C480.7 453.7 482.2 484.4 468.8 505.1C467.4 507.3 464.4 508 462.2 506.5C460 505.1 459.3 502.1 460.8 499.9C472.5 481.8 471.1 452.8 469.8 427.1C468.9 409.2 468 392.3 471.4 379.6C476.6 359.9 494.5 347.5 507.6 338.4C512.1 335.3 518.2 331.1 519.3 329C518.4 326.7 516.8 325.4 514.1 325.1C501.8 323.3 476.1 339.9 454.3 370.8C441.5 389 429.5 413.9 416.8 440.4C399.3 476.8 379.5 518 351.8 555C304.4 618.1 227.9 737.6 227.2 738.8C226.2 740.2 224.7 741 223.1 741Z" fill="#111827"/>
<path d="M551.2 342.4C548.5 342.4 546.4 340.3 546.4 337.6C546.4 330.9 545.8 326 542.9 323.6C539.2 320.5 530.4 320.4 516.9 323.1C514.3 323.6 511.8 321.9 511.2 319.3C510.7 316.7 512.4 314.2 515 313.6C532.2 310.2 542.7 310.9 549 316.1C555.4 321.4 556 329.9 556 337.5C556 340.3 553.9 342.4 551.2 342.4Z" fill="#111827"/>
<path d="M297.4 625.3C284.9 607.7 258 593 237 583.6C235.2 586.3 233.4 589 231.6 591.7C251.7 600.6 278 614.7 289.6 630.9C290.5 632.2 292 632.9 293.5 632.9C294.5 632.9 295.4 632.6 296.3 632C298.5 630.5 299 627.5 297.4 625.3Z" fill="#111827"/>
<path d="M1168.1 776.3C1157.3 744.7 1142.6 714.4 1126.9 685.2C1111 655.6 1093.2 627.1 1073.7 599.9C1067.1 590.7 1055.8 555.7 1043.1 556.1C1033.8 556.4 993.4 594.4 988.5 588.3C986.6 585.9 984.8 583.6 982.9 581.2C980.9 584.2 978.9 587.2 976.9 590.1C973.5 585.4 970.6 581.3 970 580.5C949.3 553.5 929.8 525.3 914.8 494.3C899.9 463.6 888.9 431 872.5 401C858.8 375.9 841 352.1 817 336.9C808.1 331.3 779.5 319.1 767.7 324C760.7 326.9 759.8 339.4 779.5 346.2C771.9 353.8 767.7 364 765.6 374.8C760 404.3 773.7 440.5 755.4 466.6C747 478.6 731.6 487.4 717.6 480.2C712.3 477.5 707.2 472.9 701 473.7C697.4 474.2 694.4 476.5 692.7 479.8C688.1 488.4 691.2 499.2 696.5 506.6C703.1 515.7 712.6 521.6 722.3 526.2C733.3 531.4 744.8 535.3 755.5 541C768.9 548.1 778.6 558.5 786.7 571.6C804.3 599.9 819.6 630 835.8 659.2C847.6 680.5 859.4 701.9 871.4 723.1C871.5 723 886 743.5 886.1 743.4C887.5 741.8 888.8 740.1 890.2 738.5C922.8 794.5 953.9 840.9 995.7 890.5C1015 913.5 1038.2 934.4 1067.1 942.5C1092.5 949.6 1122.6 954.7 1143 937.2C1162.1 920.7 1182.6 899.3 1187.1 874.1C1192.8 842.3 1178.3 806.3 1168.1 776.3Z" fill="white"/>
<path d="M1051.6 560.5C1047.8 553.2 1043.4 546.2 1040.4 540.6C1031 523.2 1020.9 506 1010 489.5C981.2 445.9 937.3 410.9 886.5 423.6C892.7 434.2 897.9 445.6 902.8 457.1C917.3 491 933.5 521.5 953 552.8C963.7 570 974.8 587 986 604C1001.4 582.8 1027.2 570.3 1051.6 560.5Z" fill="#111827"/>
<path d="M727.3 331.2C711.3 332.8 657.3 362.2 681.9 385.6C694.5 397.7 727.3 331.2 727.3 331.2Z" fill="white"/>
<path d="M685.4 391.9C682.8 391.9 680.5 390.9 678.5 389.1C669.3 380.4 669.9 371.3 672 365.2C679.1 344.4 714.4 327.6 726.8 326.4C728.6 326.3 730.2 327 731.2 328.4C732.2 329.8 732.3 331.7 731.6 333.3C725.2 346.3 703 388.9 687.3 391.7C686.6 391.8 686 391.9 685.4 391.9ZM718 338.8C704.6 344.1 685.4 356.1 681.1 368.4C679.4 373.5 680.6 377.9 685.2 382.2C689.6 383.2 704 364.9 718 338.8Z" fill="#111827"/>
<path d="M711 353.5L737.5 360.8L742.3 328.8L743.9 324C711.9 317.6 711 337.5 711 353.5Z" fill="white"/>
<path d="M737.5 365.6C737.1 365.6 736.6 365.5 736.2 365.4L709.7 358.1C707.6 357.5 706.2 355.6 706.2 353.5C706.2 344.5 706.2 330.9 715.5 323.3C722 318 731.6 316.6 744.9 319.3C746.3 319.6 747.4 320.4 748.1 321.6C748.8 322.8 748.9 324.2 748.5 325.5L747 329.9L742.3 361.5C742.1 362.9 741.3 364.1 740.2 364.8C739.3 365.4 738.4 365.6 737.5 365.6ZM715.8 349.9L733.5 354.8L737.5 328.1C737.5 328 737.5 327.9 737.5 327.9C730.2 327.1 724.8 328 721.4 330.8C716.9 334.5 716 341.8 715.8 349.9Z" fill="#111827"/>
<path d="M1091.7 954.1C1088.9 954.1 1086 954 1083.1 953.8C1051.8 951.8 1005.2 916.6 964.4 863.9C907.6 790.6 861.3 716.4 833.7 672C824.6 657.4 817.5 645.9 812.1 637.9C800.9 621.1 791.2 602.7 782.7 586.5C770.7 563.7 759.4 542.2 750.5 539C732 532.3 690.1 510.8 678.2 487C670.3 471.3 676.8 464.7 680 462.6C687.3 457.7 699.2 460.8 707 469.7C708.7 471.7 708.5 474.7 706.5 476.5C704.5 478.2 701.5 478 699.7 476C694.6 470.2 687.8 468.9 685.3 470.5C683.2 471.9 683.8 476.7 686.8 482.7C697.3 503.6 737.2 523.9 753.8 530C766.2 534.5 777.3 555.5 791.3 582.1C799.7 598.1 809.3 616.3 820.2 632.7C825.6 640.9 832.8 652.4 841.9 667C869.4 711.2 915.5 785.2 972 858.1C1016.6 915.6 1060.3 942.8 1083.7 944.3C1121.8 946.7 1154.2 932.1 1170.4 905.2C1189.6 873.5 1197 810.2 1123.3 689.1C1108.3 664.4 1094.6 641.6 1082 620.7C986.7 462 954.5 408.6 888.7 428.7C886.2 429.5 883.5 428.1 882.7 425.5C881.9 423 883.3 420.3 885.9 419.5C958.9 397.2 992 452.2 1090.2 615.7C1102.8 636.7 1116.5 659.4 1131.5 684.1C1207.7 809.3 1199.2 876.1 1178.6 910.1C1161.8 938 1129.7 954.1 1091.7 954.1Z" fill="#111827"/>
<path d="M768.3 317.7C738 312.1 734.1 323.7 734.1 339.4L758.8 355.5C760.7 342.7 764.4 330.1 768.3 317.7Z" fill="white"/>
<path d="M763 355.3C761.9 341.5 764.2 326.1 769.9 313.1C754.1 310.1 743.7 311.2 737.1 316.6C730.2 322.3 729.3 331.3 729.3 339.5C729.3 341.1 730.1 342.6 731.5 343.5L758.7 361.3C759.5 361.8 760.4 362.1 761.3 362.1C761.9 362.1 762.5 362 763.1 361.7C763.2 360.2 763.4 358.8 763.6 357.3C763.3 356.7 763 356.1 763 355.3ZM758.1 349.4L738.9 336.8C739.1 330 740.4 326.2 743.2 323.9C746.9 320.9 754 320.2 764.3 321.8L758.1 349.4Z" fill="#111827"/>
<path d="M759.3 494.5C802.157 494.5 836.9 459.757 836.9 416.9C836.9 374.043 802.157 339.3 759.3 339.3C716.443 339.3 681.7 374.043 681.7 416.9C681.7 459.757 716.443 494.5 759.3 494.5Z" fill="white"/>
<path d="M828.8 438.4C828.6 439 828.4 439.7 828.2 440.3C818.4 469 791.2 489.7 759.2 489.7C719 489.7 686.4 457 686.4 416.9C686.4 405.7 689 395 693.5 385.5C705.2 361 730.3 344.1 759.2 344.1C771.2 344.1 782.5 347 792.5 352.2C810.3 361.4 823.9 377.8 829.4 397.6C829.5 398 829.6 398.3 829.7 398.7C829 384.8 826.2 371.4 818.3 359.5C812.3 353.4 805.4 348.1 797.8 344.1C788.3 339.1 777.7 335.8 766.4 334.8C764 334.6 761.6 334.5 759.2 334.5C725.1 334.5 695.8 355.3 683.3 384.8C679.1 394.7 676.8 405.5 676.8 416.9C676.8 462.4 713.8 499.3 759.2 499.3C787.8 499.3 813 484.7 827.8 462.5C828.3 461.8 828.7 461.1 829.2 460.3C828.6 453.2 828.6 445.9 828.8 438.4Z" fill="#111827"/>
<path d="M759.3 474.5C791.112 474.5 816.9 448.712 816.9 416.9C816.9 385.088 791.112 359.3 759.3 359.3C727.488 359.3 701.7 385.088 701.7 416.9C701.7 448.712 727.488 474.5 759.3 474.5Z" fill="white"/>
<path d="M759.3 479.3C724.9 479.3 696.9 451.3 696.9 416.9C696.9 382.5 724.9 354.5 759.3 354.5C793.7 354.5 821.7 382.5 821.7 416.9C821.7 451.3 793.7 479.3 759.3 479.3ZM759.3 364C730.2 364 706.5 387.7 706.5 416.8C706.5 445.9 730.2 469.6 759.3 469.6C788.4 469.6 812.1 445.9 812.1 416.8C812.1 387.7 788.4 364 759.3 364Z" fill="#111827"/>
<path d="M1079.4 741C1077.8 741 1076.3 740.2 1075.4 738.8C1074.6 737.6 998.1 618.2 950.8 555C923 518 903.2 476.8 885.8 440.4C873.1 413.9 861.1 389 848.3 370.8C825.4 338.3 789 322 773.9 325.1C769.5 326 769 328.2 768.8 329C768.3 331.4 772.7 333.3 782.1 336.7C797.6 342.3 821 350.7 831.1 379.2C835.8 392.6 834.8 411 833.6 430.5C832.1 456.1 830.6 482.6 841.8 499.8C843.2 502 842.6 505 840.4 506.4C838.2 507.8 835.2 507.2 833.8 505C820.9 485.2 822.5 457.1 824.1 429.9C825.2 411.4 826.2 394 822.1 382.3C813.6 358.1 793.6 350.9 779 345.6C768.3 341.8 757.2 337.8 759.6 326.9C760.9 321 765.3 316.9 772.1 315.6C792.5 311.4 832 330.8 856.2 365.2C869.4 384 881.6 409.3 894.5 436.2C911.8 472.2 931.4 512.9 958.6 549.2C1006.2 612.6 1082.9 732.4 1083.6 733.6C1085 735.8 1084.4 738.8 1082.1 740.2C1081.2 740.7 1080.3 741 1079.4 741Z" fill="#111827"/>
<path d="M1057 561.5C1037.7 550.4 999 577.9 984.8 590.5C986.8 593.1 988.6 595.7 990.4 598.4C1004.6 585.3 1039.9 562.8 1052.3 569.8C1054.6 571.1 1057.5 570.3 1058.9 568C1060.1 565.8 1059.3 562.9 1057 561.5Z" fill="#111827"/>
<path d="M735.3 431.3C734.1 431.3 732.8 430.8 731.9 429.9C730 428 730 425 731.9 423.1L765.5 389.5C767.4 387.6 770.4 387.6 772.3 389.5C774.2 391.4 774.2 394.4 772.3 396.3L738.7 429.9C737.7 430.8 736.5 431.3 735.3 431.3Z" fill="#00DA9F"/>
</svg>
