<svg width="511" height="96" viewBox="0 0 511 96" fill="none" xmlns="http://www.w3.org/2000/svg">
<g clip-path="url(#clip0)">
<path d="M49.673 79.479C49.2982 76.1301 48.6147 72.1115 45.2194 70.5264C43.3674 69.6557 41.2729 70.0799 40.0383 71.4418C39.8619 70.2362 39.3989 69.1199 38.3186 68.4725C37.5469 68.0036 36.687 67.8697 35.9154 68.1153C36.9516 62.5785 37.5469 55.8362 32.5862 52.1078C29.8082 50.0092 25.9058 50.2325 23.5908 52.5543C23.5247 44.4055 14.2868 38.7571 7.18749 44.3162C-1.58742 51.1925 2.6457 62.8241 7.12134 71.1739C3.50555 69.9236 -0.374809 74.6343 -0.0220494 78.6976C0.639376 86.6455 8.66467 86.7571 14.6175 86.7348C25.0239 86.6678 34.4382 87.0027 44.8667 86.3553C47.6667 86.1767 50.7093 87.1143 52.0541 84.1004C53.0242 81.9571 51.8337 79.7915 49.673 79.479Z" fill="#B3BFE2"/>
<path d="M47.1596 36.7031C48.9234 34.7831 48.8132 31.5906 46.1454 30.2734C43.4556 28.9562 41.0084 30.8092 40.5454 33.332C37.6571 33.0194 34.1295 34.0017 33.887 37.5069C33.7327 39.8064 35.7831 41.4585 37.7674 41.0343C37.4808 42.9989 38.539 44.9859 40.7879 45.2762C43.0808 45.5664 44.6021 43.825 44.7564 41.771C48.1958 43.3785 50.0919 37.7971 47.1596 36.7031Z" fill="#B3BFE2"/>
<path d="M30.0728 70.6603C29.4114 67.9143 28.1547 64.878 25.4428 63.6501C23.3042 62.6677 20.7467 62.9803 19.1813 64.811C18.6963 65.3915 19.512 66.2398 20.0191 65.6594C21.5845 63.8287 24.3404 63.9626 26.0822 65.4808C27.7137 66.865 28.4413 68.9636 28.9263 70.9952C29.1027 71.732 30.2492 71.4194 30.0728 70.6603Z" fill="white"/>
<path d="M17.0427 75.3041C14.882 74.7683 12.6552 76.5097 12.6552 78.7869C12.6552 79.546 13.8238 79.546 13.8238 78.7869C13.8238 77.3135 15.3009 76.1079 16.734 76.4651C17.4616 76.6437 17.7703 75.4827 17.0427 75.3041Z" fill="white"/>
<path d="M40.9202 35.1404C39.0241 34.1134 36.8193 35.8771 37.4587 37.9981C37.6792 38.7348 38.8257 38.4222 38.6052 37.6855C38.2745 36.6139 39.3107 35.6316 40.3469 36.1897C40.9863 36.5246 41.5816 35.4976 40.9202 35.1404Z" fill="white"/>
<path d="M75.7993 54.8765C62.4385 54.8765 50.4667 54.4969 49.0998 54.8988C47.7328 55.3006 44.8005 86.11 44.9989 88.6997C45.1974 91.2895 92.3129 89.6597 93.5034 88.6774C94.672 87.6728 98.398 56.4616 97.2074 55.2783C96.0169 54.0727 81.2891 54.8765 75.7993 54.8765Z" fill="white"/>
<path d="M61.8212 90.7088C53.84 90.7088 47.0273 90.4186 45.1753 89.6372C44.6903 89.4363 44.4036 89.1237 44.3816 88.7442C44.2714 87.3823 44.9548 79.0549 45.8367 70.906C47.6005 54.6977 48.3942 54.4744 48.9013 54.3181C49.7832 54.0502 53.6415 54.0949 61.6007 54.1842C65.8559 54.2288 70.6843 54.2735 75.7772 54.2735C77.1662 54.2735 79.1064 54.2288 81.3553 54.1619C91.8499 53.894 96.6783 53.9163 97.5822 54.8316C97.8027 55.0549 98.0893 55.3451 97.935 59.0958C97.6484 65.8158 95.179 87.9851 93.8341 89.1237C93.0184 89.8381 75.6891 90.7088 61.8212 90.7088ZM45.5722 88.4986C48.5265 90.374 89.9317 89.1684 93.1066 88.1861C94.3192 85.7302 97.4499 57.9126 96.7444 55.6577C95.5759 54.9879 86.3821 55.2335 81.4214 55.3674C79.1726 55.4344 77.2103 55.4791 75.7993 55.4791C70.6843 55.4791 65.8779 55.4344 61.6227 55.3898C55.714 55.3228 50.5549 55.2558 49.4084 55.4567C48.1076 57.9126 45.4619 85.1051 45.5722 88.4986Z" fill="#111827"/>
<path d="M100.162 80.1265C94.6499 80.1265 95.0688 87.092 98.9933 87.293C104.086 87.5385 104.461 80.1265 100.162 80.1265Z" fill="#B3BFE2"/>
<path d="M96.3255 56.2603C89.3805 62.9134 82.7883 69.0975 74.5646 74.0985C72.4701 75.371 70.9268 76.398 68.237 74.6566C67.4653 74.1431 66.8039 73.3171 66.1204 72.6696C64.1362 70.7496 62.1739 68.8073 60.2117 66.865C56.5518 63.2706 52.8919 59.6761 49.2321 56.0817C48.6809 55.5459 47.9092 56.4389 48.4384 56.9747C52.936 61.3952 57.4337 65.8157 61.9535 70.2362C64.5992 72.8259 67.9283 77.8938 72.2496 76.6213C74.6308 75.9069 76.7914 74.0538 78.7977 72.6473C81.1789 70.9952 83.4938 69.2538 85.7868 67.4678C90.1081 64.0743 93.2388 60.8594 97.2074 57.0417C97.7365 56.5282 96.8767 55.7245 96.3255 56.2603Z" fill="#FF1A36"/>
<path d="M93.8562 87.5388C89.7995 81.5778 85.2136 76.0634 80.1206 70.9955C79.5694 70.4597 78.7537 71.308 79.2828 71.8439C84.3096 76.8448 88.8294 82.2922 92.82 88.1415C93.2609 88.7667 94.2751 88.1639 93.8562 87.5388Z" fill="#FF1A36"/>
<path d="M63.5189 70.9507L45.9029 88.2307C45.3517 88.7665 46.1895 89.6149 46.7407 89.079C52.6053 83.319 58.47 77.5591 64.3346 71.8214C64.0039 71.5758 63.7173 71.2856 63.5189 70.9507Z" fill="#FF1A36"/>
<path d="M57.2353 95.8883C56.8384 95.8883 56.4195 95.8883 55.9786 95.866C55.0526 95.8436 53.9943 95.799 52.7817 95.8436C50.5769 95.9106 49.21 95.5088 48.3501 94.5264C46.6745 92.6511 47.1375 88.9897 48.0415 81.6892C48.4383 78.5413 48.9234 74.6343 49.3423 69.9906C49.3643 69.6557 49.6509 69.4325 49.9816 69.4548C50.3124 69.4771 50.5549 69.7674 50.5108 70.1022C50.0919 74.7683 49.6068 78.6976 49.21 81.8455C48.3722 88.5655 47.9092 92.2715 49.21 93.745C49.8273 94.4371 50.9076 94.705 52.7376 94.6604C53.9722 94.6157 55.0526 94.6604 56.0006 94.6827C60.7408 94.8167 61.6007 94.839 62.3944 85.8418C62.5928 83.6762 62.8133 81.6446 63.0558 79.6799C63.7613 73.5404 64.3346 68.6957 62.681 66.6418C62.1739 66.0167 61.4684 65.6595 60.4983 65.5478C57.9628 65.2799 56.5738 65.4139 55.8683 66.0167C55.0085 66.7311 54.8982 68.3162 54.6778 70.9506C54.6337 71.5088 54.5896 72.0892 54.5234 72.7367C53.9281 79.1441 53.5313 87.4715 53.5313 87.5385C53.5092 87.8734 53.2447 88.119 52.914 88.0967C52.5832 88.0743 52.3407 87.8064 52.3628 87.4715C52.3628 87.3822 52.7596 79.0548 53.3549 72.6027C53.421 71.9776 53.4651 71.3748 53.5092 70.839C53.7518 67.892 53.884 66.1283 55.1187 65.079C56.1108 64.2306 57.6542 64.0297 60.6306 64.3422C61.9093 64.4762 62.9015 64.9897 63.607 65.8604C65.5472 68.3162 64.9739 73.3841 64.2243 79.7915C64.0038 81.7562 63.7613 83.7878 63.5849 85.9087C62.7912 94.839 61.5345 95.8883 57.2353 95.8883Z" fill="#111827"/>
<path d="M98.9051 24.2678C97.1633 15.918 94.0546 8.01477 89.6451 0.758955C89.0057 -0.290347 87.264 -0.156392 86.9553 1.11617C86.6687 2.32175 86.5364 3.505 86.4923 4.68826C85.853 3.59431 85.1915 2.50035 84.5301 1.42872C83.6923 0.0891879 81.9726 0.758957 81.7962 2.18779C81.686 3.03617 81.6639 3.86221 81.6639 4.68826C81.4214 4.42035 81.2009 4.17477 80.9584 3.90686C79.834 2.74593 78.2907 3.97384 78.4891 5.35803C79.2607 10.359 80.9143 15.025 83.4277 19.3785C83.6482 19.758 83.9569 19.9813 84.3096 20.0483C84.8388 21.0306 85.4341 21.9906 86.0955 22.9059C86.4041 23.3078 86.9333 23.665 87.4404 23.665C88.212 24.3794 89.5128 24.2455 89.8656 23.2631C90.2404 23.2408 90.5932 23.0622 90.8577 22.772C91.4751 23.1738 92.4231 22.9283 92.9082 22.3255C93.305 23.0845 93.7019 23.8659 94.0987 24.6473C94.4956 25.4511 95.4216 25.518 96.083 25.1608C96.5239 26.9245 99.2799 26.1208 98.9051 24.2678Z" fill="#FF1A36"/>
<path d="M89.7113 18.8875C95.7964 19.0884 104.637 18.2847 106.6 28.8223C108.562 39.36 95.2231 47.3079 84.023 44.1377C72.8229 40.9675 68.5016 35.4084 65.3708 32.6177C62.218 29.827 67.7299 30.2288 67.7299 30.2288C67.7299 30.2288 64.5771 28.0409 64.974 26.2549C65.3708 24.4688 69.8906 25.853 69.8906 25.853C69.8906 25.853 73.2197 24.4688 73.6166 22.4819C74.0134 20.4949 89.7113 18.8875 89.7113 18.8875Z" fill="#FF1A36"/>
<path d="M99.3019 22.5933C94.8483 22.3478 94.8483 30.1171 99.0153 30.1171C103.182 30.1171 104.946 22.8836 99.3019 22.5933Z" fill="white"/>
<path d="M99.346 23.8436C96.3916 23.6873 96.4137 28.8222 99.1476 28.8222C101.881 28.8222 103.072 24.0445 99.346 23.8436Z" fill="#111827"/>
<path d="M93.8342 21.879C87.3522 15.918 72.2276 -0.781492 67.1126 3.41572C62.0196 7.5906 73.3961 17.1236 73.3961 17.1236C73.3961 17.1236 66.1205 10.5599 63.585 12.7478C61.0275 14.9357 70.2654 21.0976 70.2654 21.0976C70.2654 21.0976 64.952 17.9273 63.3866 20.3162C61.8212 22.705 80.275 32.6399 80.275 32.6399L93.8342 21.879Z" fill="#FF1A36"/>
<path d="M83.6261 30.7197C78.5773 29.0453 73.6386 27.1253 68.8102 24.9374C68.1267 24.6248 67.5315 25.6518 68.2149 25.9644C73.1536 28.1969 78.1804 30.1616 83.3175 31.8583C84.045 32.1039 84.3537 30.943 83.6261 30.7197Z" fill="white"/>
<path d="M79.6135 40.4762C73.6166 44.919 67.3992 49.0269 60.9614 52.7999C60.2999 53.1794 60.8952 54.2064 61.5566 53.8269C67.9945 50.0539 74.2119 45.9459 80.2088 41.5032C80.8261 41.0567 80.2309 40.0073 79.6135 40.4762Z" fill="#FF1A36"/>
<path d="M84.1994 41.7265C79.3269 45.7898 74.2119 49.4735 68.8323 52.8C68.1929 53.2019 68.7882 54.2289 69.4276 53.827C74.8954 50.4558 80.0986 46.7052 85.0372 42.5749C85.6104 42.0838 84.7726 41.2354 84.1994 41.7265Z" fill="#FF1A36"/>
<path d="M61.2038 52.9785C60.4763 52.7776 60.1676 53.9162 60.8952 54.1394C62.4165 54.5636 63.2322 56.2604 62.7031 57.7338C62.4605 58.4483 63.585 58.7608 63.8495 58.0464C64.5771 55.9478 63.2983 53.5813 61.2038 52.9785Z" fill="#FF1A36"/>
<path d="M69.0087 53.0901C68.2591 53.2241 68.5898 54.385 69.3173 54.2511C70.7725 53.9832 71.6984 55.4567 71.1914 56.7515C70.9047 57.466 72.0512 57.7785 72.3378 57.0641C73.1977 54.8315 71.2575 52.6883 69.0087 53.0901Z" fill="#FF1A36"/>
<path d="M61.3141 52.9562C60.5865 53.1571 60.8952 54.318 61.6227 54.1171C64.1141 53.4027 66.363 55.3004 66.2086 57.8901C66.1645 58.6492 67.333 58.6492 67.3771 57.8901C67.5976 54.4966 64.511 52.0408 61.3141 52.9562Z" fill="#FF1A36"/>
<path d="M69.185 52.7776C68.4795 53.0455 68.7882 54.2064 69.4937 53.9385C71.7646 53.0678 74.1678 54.8092 73.7268 57.332C73.5945 58.0911 74.741 58.4036 74.8733 57.6446C75.4465 54.318 72.3819 51.5497 69.185 52.7776Z" fill="#FF1A36"/>
<path d="M110.965 25.4957C108.804 25.8306 106.644 26.1655 104.483 26.5004C103.733 26.612 104.064 27.7729 104.792 27.6613C106.952 27.3264 109.113 26.9915 111.274 26.6567C112.023 26.5227 111.715 25.3841 110.965 25.4957Z" fill="#111827"/>
<path d="M110.127 28.0183H105.409C104.659 28.0183 104.659 29.2016 105.409 29.2016H110.127C110.899 29.2239 110.899 28.0183 110.127 28.0183Z" fill="#111827"/>
<path d="M90.8357 19.0213C87.5947 15.5609 84.3317 12.0781 81.0907 8.61761C80.5615 8.05947 79.7458 8.90784 80.2529 9.46598C83.4939 12.9264 86.7569 16.4092 89.9979 19.8697C90.527 20.4278 91.3648 19.5795 90.8357 19.0213Z" fill="white"/>
</g>
<path d="M167.291 26.3636H158.108V53.8068H157.724L138.889 26.3636H130.793V70H140.018V42.5355H140.338L159.322 70H167.291V26.3636ZM189.658 70.6392C197.755 70.6392 203.209 66.6974 204.488 60.625L196.093 60.071C195.176 62.5639 192.833 63.8636 189.807 63.8636C185.269 63.8636 182.392 60.8594 182.392 55.9801V55.9588H204.679V53.4659C204.679 42.3438 197.946 36.8466 189.296 36.8466C179.665 36.8466 173.422 43.6861 173.422 53.7855C173.422 64.1619 179.58 70.6392 189.658 70.6392ZM182.392 50.3338C182.584 46.6051 185.418 43.6222 189.445 43.6222C193.387 43.6222 196.114 46.4347 196.135 50.3338H182.392ZM217.661 37.2727H208.286L217.661 53.6364L207.945 70H217.32L223.669 58.6861L230.125 70H239.393L229.656 53.6364L239.138 37.2727H229.827L223.669 48.7145L217.661 37.2727ZM261.936 37.2727H255.778V29.4318H246.702V37.2727H242.227V44.0909H246.702V61.1364C246.659 67.5497 251.027 70.7244 257.611 70.4474C259.955 70.3622 261.616 69.8935 262.533 69.5952L261.105 62.8409C260.658 62.9261 259.699 63.1392 258.847 63.1392C257.036 63.1392 255.778 62.4574 255.778 59.9432V44.0909H261.936V37.2727ZM273.154 70.554C275.881 70.554 278.246 68.2741 278.268 65.4403C278.246 62.6491 275.881 60.3693 273.154 60.3693C270.342 60.3693 268.019 62.6491 268.04 65.4403C268.019 68.2741 270.342 70.554 273.154 70.554ZM285.72 37.2727V71.4702C285.72 73.9418 284.676 75.1776 281.757 75.1776C281.373 75.1776 281.032 75.1776 280.564 75.1349V82.2301C281.224 82.2514 281.757 82.2727 282.396 82.2727C290.109 82.2727 294.797 79.2045 294.797 71.6193V37.2727H285.72ZM290.237 33.054C292.943 33.054 295.159 30.9872 295.159 28.4517C295.159 25.9375 292.943 23.8707 290.237 23.8707C287.552 23.8707 285.336 25.9375 285.336 28.4517C285.336 30.9872 287.552 33.054 290.237 33.054ZM329.298 46.6051C328.488 40.5753 323.63 36.8466 315.363 36.8466C306.989 36.8466 301.471 40.7244 301.492 47.0312C301.471 51.9318 304.56 55.1065 310.952 56.3849L316.62 57.5142C319.475 58.0895 320.775 59.1335 320.817 60.7741C320.775 62.7131 318.665 64.098 315.491 64.098C312.252 64.098 310.1 62.7131 309.546 60.0497L300.619 60.5185C301.471 66.7827 306.798 70.6392 315.469 70.6392C323.95 70.6392 330.022 66.3139 330.043 59.858C330.022 55.1278 326.933 52.294 320.583 50.9943L314.66 49.8011C311.613 49.1406 310.484 48.0966 310.505 46.5199C310.484 44.5597 312.7 43.2812 315.512 43.2812C318.665 43.2812 320.54 45.0071 320.988 47.1165L329.298 46.6051ZM386.315 26.3636H377.131V53.8068H376.748L357.913 26.3636H349.816V70H359.042V42.5355H359.362L378.346 70H386.315V26.3636ZM408.681 70.6392C416.778 70.6392 422.233 66.6974 423.511 60.625L415.116 60.071C414.2 62.5639 411.856 63.8636 408.831 63.8636C404.292 63.8636 401.416 60.8594 401.416 55.9801V55.9588H423.703V53.4659C423.703 42.3438 416.97 36.8466 408.319 36.8466C398.689 36.8466 392.446 43.6861 392.446 53.7855C392.446 64.1619 398.603 70.6392 408.681 70.6392ZM401.416 50.3338C401.608 46.6051 404.441 43.6222 408.468 43.6222C412.41 43.6222 415.137 46.4347 415.159 50.3338H401.416ZM435.848 70H445.436L451.061 49.4176H451.466L457.091 70H466.7L475.585 37.2727H466.423L461.437 59.1335H461.16L455.791 37.2727H446.778L441.494 59.2614H441.196L436.125 37.2727H426.941L435.848 70ZM507.657 46.6051C506.847 40.5753 501.989 36.8466 493.722 36.8466C485.349 36.8466 479.83 40.7244 479.852 47.0312C479.83 51.9318 482.92 55.1065 489.312 56.3849L494.979 57.5142C497.835 58.0895 499.134 59.1335 499.177 60.7741C499.134 62.7131 497.025 64.098 493.85 64.098C490.612 64.098 488.46 62.7131 487.906 60.0497L478.978 60.5185C479.83 66.7827 485.157 70.6392 493.829 70.6392C502.309 70.6392 508.381 66.3139 508.403 59.858C508.381 55.1278 505.292 52.294 498.942 50.9943L493.019 49.8011C489.972 49.1406 488.843 48.0966 488.864 46.5199C488.843 44.5597 491.059 43.2812 493.871 43.2812C497.025 43.2812 498.9 45.0071 499.347 47.1165L507.657 46.6051Z" fill="#111827"/>
<defs>
<clipPath id="clip0">
<rect width="111.781" height="96" fill="white"/>
</clipPath>
</defs>
</svg>
