<svg width="598" height="96" viewBox="0 0 598 96" fill="none" xmlns="http://www.w3.org/2000/svg">
<g clip-path="url(#clip0)">
<path d="M151.627 41.5726C153.763 41.5726 155.499 40.4392 155.499 37.9726C155.499 35.5059 153.763 34.3726 151.627 34.3726H145.753V28.7059C145.753 26.3059 144.485 24.3726 141.748 24.3726C139.012 24.3726 137.743 26.3059 137.743 28.7059V34.3726H135.474C133.271 34.3726 131.536 35.5059 131.536 37.9726C131.536 40.4392 133.271 41.5726 135.474 41.5726H137.743V55.9726C137.743 68.2392 142.416 68.2392 152.562 68.2392C156.166 68.2392 157.969 67.0392 157.969 64.4392C157.969 61.8392 156.166 60.6392 153.897 60.6392H149.625C146.554 60.6392 145.753 58.7726 145.753 54.7726V41.5726H151.627Z" fill="#161E2E"/>
<path d="M215.761 38.3065C215.761 35.9065 214.493 33.9731 211.756 33.9731C209.019 33.9731 207.751 35.9065 207.751 38.3065V52.1065C207.751 58.3065 204.814 61.4398 200.275 61.4398C196.671 61.4398 194.868 59.1731 194.868 54.5065V38.3065C194.868 35.9065 193.6 33.9731 190.863 33.9731C188.127 33.9731 186.858 35.9065 186.858 38.3065V56.6398C186.858 63.4398 191.531 68.6398 198.74 68.6398C202.411 68.6398 205.081 67.5731 207.751 65.0398C207.751 66.7065 209.019 68.6398 211.756 68.6398C214.493 68.6398 215.761 66.7065 215.761 64.3065V38.3065Z" fill="#161E2E"/>
<path d="M250.257 63.9065C250.257 66.5065 251.725 68.4398 254.262 68.4398C256.798 68.4398 258.267 66.5065 258.267 63.9065V49.3065C258.267 43.1731 260.203 41.5731 264.141 41.5731C267.011 41.5731 268.747 40.3731 268.747 37.8398C268.747 35.5731 267.545 33.9731 264.608 33.9731C260.87 33.9731 258.334 35.5731 257.8 39.2398H257.666L257.533 37.1731C257.266 34.1731 255.397 33.9731 253.928 33.9731C251.592 33.9731 250.257 35.3065 250.257 38.0398V63.9065Z" fill="#161E2E"/>
<path d="M297.703 64.1065C297.703 66.5065 298.971 68.4398 301.708 68.4398C304.445 68.4398 305.713 66.5065 305.713 64.1065V50.5065C305.713 44.3065 308.65 41.1731 313.189 41.1731C316.794 41.1731 318.596 43.4398 318.596 48.1065V64.1065C318.596 66.5065 319.864 68.4398 322.601 68.4398C325.338 68.4398 326.606 66.5065 326.606 64.1065V45.9731C326.606 39.1731 321.933 33.9731 314.724 33.9731C311.053 33.9731 308.383 35.0398 305.713 37.5731C305.713 35.9065 304.445 33.9731 301.708 33.9731C298.971 33.9731 297.703 35.9065 297.703 38.3065V64.1065Z" fill="#161E2E"/>
<path d="M374.852 68.2397C382.395 68.2397 388.002 64.8397 388.002 56.773C388.002 42.7064 366.976 47.8397 366.976 43.2397C366.976 41.6397 368.645 41.573 369.846 41.573H381.527C383.663 41.573 385.399 40.4397 385.399 37.973C385.399 35.5064 383.663 34.373 381.527 34.373H370.313C362.971 34.373 358.966 37.1064 358.966 43.173C358.966 57.1064 379.992 49.8397 379.992 56.7064C379.992 60.3064 377.456 61.0397 374.252 61.0397H362.237C360.034 61.0397 358.298 62.173 358.298 64.6397C358.298 67.1064 360.034 68.2397 362.237 68.2397H374.852Z" fill="#5850EC"/>
<path d="M419.695 64.1065C419.695 66.5065 420.963 68.4398 423.7 68.4398C426.437 68.4398 427.705 66.5065 427.705 64.1065V50.5065C427.705 44.3065 430.642 41.1732 435.181 41.1732C438.785 41.1732 440.588 43.4398 440.588 48.1065V64.1065C440.588 66.5065 441.856 68.4398 444.592 68.4398C447.329 68.4398 448.597 66.5065 448.597 64.1065V45.9732C448.597 39.1732 443.925 33.9732 436.716 33.9732C433.045 33.9732 430.375 35.0398 427.705 37.5732V25.1732C427.705 22.7732 426.437 20.8398 423.7 20.8398C420.963 20.8398 419.695 22.7732 419.695 25.1732V64.1065Z" fill="#5850EC"/>
<path d="M491.772 38.3058C491.772 35.9058 490.504 33.9725 487.767 33.9725C485.03 33.9725 483.762 35.9058 483.762 38.3058V64.1058C483.762 66.5058 485.03 68.4392 487.767 68.4392C490.504 68.4392 491.772 66.5058 491.772 64.1058V38.3058ZM487.767 20.6392C485.297 20.6392 483.361 22.3725 483.361 25.5725C483.361 28.7725 485.297 30.5058 487.767 30.5058C490.237 30.5058 492.172 28.7725 492.172 25.5725C492.172 22.3725 490.237 20.6392 487.767 20.6392Z" fill="#5850EC"/>
<path d="M528.404 64.1058C528.404 66.5058 529.672 68.4392 532.409 68.4392C535.145 68.4392 536.414 66.5058 536.414 64.1058V41.5725H541.954C544.09 41.5725 545.825 40.4392 545.825 37.9725C545.825 35.5058 544.09 34.3725 541.954 34.3725H536.414V30.9725C536.414 29.0392 537.148 28.2392 539.751 28.2392H542.955C545.224 28.2392 547.027 27.0392 547.027 24.4392C547.027 21.1725 544.49 20.6392 541.22 20.6392C533.677 20.6392 528.404 22.2392 528.404 30.3058V34.3725H526.134C523.931 34.3725 522.196 35.5058 522.196 37.9725C522.196 40.4392 523.931 41.5725 526.134 41.5725H528.404V64.1058Z" fill="#5850EC"/>
<path d="M591.336 41.5726C593.472 41.5726 595.207 40.4392 595.207 37.9726C595.207 35.5059 593.472 34.3726 591.336 34.3726H585.462V28.7059C585.462 26.3059 584.194 24.3726 581.457 24.3726C578.72 24.3726 577.452 26.3059 577.452 28.7059V34.3726H575.182C572.98 34.3726 571.244 35.5059 571.244 37.9726C571.244 40.4392 572.98 41.5726 575.182 41.5726H577.452V55.9726C577.452 68.2392 582.124 68.2392 592.27 68.2392C595.875 68.2392 597.677 67.0392 597.677 64.4392C597.677 61.8392 595.875 60.6392 593.605 60.6392H589.333C586.263 60.6392 585.462 58.7726 585.462 54.7726V41.5726H591.336Z" fill="#5850EC"/>
<path d="M38.9151 79.884C32.9985 82.2477 26.6517 81.603 21.7032 78.1649C17.2927 74.9417 4.38377 64.6275 4.27619 64.52C2.87773 63.4456 2.555 61.4043 3.52317 59.9001C3.95347 59.2554 4.70649 58.7182 5.56708 58.6108C6.42768 58.5034 7.1807 58.7182 7.82615 59.148C7.82615 59.148 7.93372 59.148 7.93372 59.2554L16.0018 64.0903C16.4321 64.4126 17.0775 64.3051 17.5078 63.9828C17.9381 63.6605 18.0457 63.0159 17.8306 62.4787L8.68674 39.4865C8.04129 37.7674 8.79432 35.9409 10.4079 35.2963C11.0534 35.0814 11.8064 35.0814 12.5594 35.4037C13.3124 35.726 13.9579 36.3707 14.3882 37.1228L19.229 49.5858C19.4442 50.123 19.982 50.4454 20.4123 50.4454C20.5199 50.4454 20.7351 50.4454 20.8426 50.3379C21.4881 50.123 21.8108 49.2635 21.5957 48.6189L16.8624 36.5856V36.4781C16.8624 36.3707 16.7548 36.2632 16.7548 36.1558L14.173 29.4945C13.5276 27.7755 14.2806 25.949 15.8942 25.3043C16.6472 24.982 17.5078 24.982 18.2609 25.3043C19.0139 25.6267 19.6593 26.2713 19.982 27.1308L21.7032 31.6433L27.2971 46.1477C27.5123 46.6849 28.0501 47.0073 28.4804 47.0073C28.588 47.0073 28.8031 47.0073 28.9107 46.8998C29.5562 46.6849 29.8789 45.8254 29.6637 45.1808L24.285 31.1061L24.1774 30.7838C23.532 29.0648 24.285 27.2383 25.8986 26.5936C26.6517 26.2713 27.5123 26.2713 28.2653 26.5936C29.0183 26.9159 29.6637 27.5606 29.9865 28.4201L32.891 35.726C32.891 35.8335 32.891 35.8335 32.9985 35.9409L36.8712 46.1477C37.0864 46.7924 37.947 47.1147 38.5924 46.8998C39.2379 46.6849 39.5606 45.8254 39.3454 45.1808L35.3652 34.974C34.7197 33.2549 35.4728 31.4284 37.0864 30.7838C37.8394 30.4615 38.7 30.4615 39.453 30.7838C40.206 31.1061 40.8515 31.7508 41.1742 32.6103L49.7801 54.9578C53.3301 65.0572 48.5968 76.0161 38.9151 79.884Z" fill="white"/>
<path d="M90.3357 56.7843C90.2281 56.8918 77.2116 67.6358 72.8011 70.9664C67.9602 74.6194 61.2906 75.4789 55.2664 73.3301C53.9755 72.9004 52.6846 72.2557 51.5013 71.5036C51.6089 71.2888 51.7165 71.0739 51.8241 70.7515C54.0831 65.487 54.2983 59.5778 52.3619 54.0983L46.6605 39.4865L51.071 26.9159C51.7165 25.1969 53.5452 24.3374 55.1589 24.8746C55.9119 25.1969 56.5573 25.7341 56.9876 26.4862C57.3103 27.2383 57.4179 28.2052 57.0952 28.9573L53.2225 39.9162C53.0074 40.5609 53.3301 41.3129 53.9755 41.6353C54.0831 41.6353 54.2983 41.7427 54.4058 41.7427C54.9437 41.7427 55.4816 41.4204 55.6967 40.8832L59.5694 29.9243C59.5694 29.8168 59.5694 29.8168 59.677 29.7094L62.3663 22.296C63.0118 20.577 64.8406 19.7175 66.4542 20.2547C67.2072 20.577 67.8526 21.1142 68.2829 21.8663C68.6057 22.6183 68.7132 23.5853 68.3905 24.4448L68.2829 24.7671L62.9042 40.346C62.6891 40.9906 63.0118 41.7427 63.7648 42.065C63.8724 42.065 64.0875 42.1725 64.1951 42.1725C64.733 42.1725 65.2709 41.8501 65.486 41.3129L71.0799 25.4118L72.6935 20.8993C73.3389 19.1803 75.1677 18.3207 76.7813 18.8579C77.5343 19.1803 78.1798 19.7175 78.6101 20.4695C78.9328 21.2216 79.0404 22.1886 78.7177 22.9407L76.351 29.3871C76.2434 29.6019 76.2434 29.7094 76.1359 29.9243C76.1359 30.0317 76.1359 30.1392 76.0283 30.1392L71.1874 43.4617C70.9723 44.1064 71.295 44.8585 71.9405 45.1808C72.048 45.1808 72.2632 45.2882 72.3708 45.2882C72.9086 45.2882 73.4465 44.9659 73.6617 44.4287L78.7177 30.4615C79.4707 28.9573 81.2994 28.0978 82.6979 28.635C83.4509 28.9573 84.0964 29.4945 84.5267 30.2466C84.8494 30.9987 84.957 31.9656 84.6342 32.7177L77.5343 51.9495C76.351 52.3793 75.2753 52.809 74.7374 53.0239C67.9602 50.4453 64.3027 53.4537 61.2906 55.8174C60.7527 56.2471 60.6452 57.1066 61.0755 57.6438C61.5057 58.181 62.3663 58.2885 62.9042 57.8587L62.9868 57.7915C65.86 55.4527 68.5521 53.2612 74.1995 55.6025C74.5222 55.7099 74.845 55.7099 75.1677 55.6025C75.4904 55.495 82.913 52.5942 85.4948 51.5198C86.8933 50.9826 89.4751 50.2305 90.8736 52.1644C92.0569 53.6686 91.7341 55.7099 90.3357 56.7843Z" fill="white"/>
<path d="M93.025 50.6602C91.1963 48.2966 87.969 47.7593 84.5267 49.1561C83.6661 49.4784 82.3752 50.0156 80.8691 50.6602L87.1084 33.5772C87.6463 32.0731 87.5387 30.4615 86.8933 29.0648C86.2479 27.668 85.0645 26.5936 83.5585 26.0564C82.4827 25.6267 81.2994 25.6267 80.2237 25.949L80.9767 23.8002C81.5146 22.296 81.407 20.6844 80.7616 19.2877C80.1161 17.891 78.9328 16.8166 77.4268 16.2794C74.4147 15.205 71.0799 16.8166 70.0041 19.7175C69.3587 18.8579 68.3905 18.1059 67.3148 17.6761C64.3027 16.6017 60.9679 18.2133 59.7846 21.2216L58.7088 24.2299C58.0634 23.3704 57.0952 22.6183 56.0195 22.296C53.0074 21.2216 49.6726 22.8332 48.4893 25.949L45.0469 35.6186L43.4333 31.5359C42.8954 30.0317 41.7121 28.8499 40.3136 28.2052C38.9151 27.5606 37.4091 27.5606 36.0106 28.0978C34.9349 28.5275 34.0743 29.2796 33.4288 30.1392L32.2455 27.2383C31.7076 25.7341 30.5243 24.5523 29.1259 23.9076C27.7274 23.263 26.2214 23.263 24.8229 23.8002C23.7472 24.2299 22.8866 24.982 22.2411 25.8415C21.5957 24.4448 20.5199 23.3704 19.1215 22.7258C17.723 22.0811 16.2169 22.0811 14.8185 22.6183C11.914 23.8002 10.4079 27.2383 11.5912 30.2466L12.4518 32.3954C11.3761 32.1805 10.3004 32.1805 9.22461 32.6103C6.3201 33.7921 4.81406 37.2302 5.99738 40.2385L13.6352 59.5778L9.00946 56.7843C7.71857 55.9248 6.21253 55.495 4.81406 55.7099C3.30802 55.9248 1.90956 56.7843 1.04896 58.0736C-0.779802 60.6522 -0.134356 64.3051 2.33985 66.2391C3.30802 67.206 15.7866 77.0905 20.3048 80.3137C23.6396 82.6774 27.7274 83.9667 31.8152 83.9667C34.5046 83.9667 37.3015 83.4295 39.9909 82.3551C44.1863 80.6361 47.7362 77.7352 50.1029 73.8673C51.3938 74.7268 52.7922 75.3715 54.2983 75.9087C56.7725 76.7682 59.3543 77.198 61.936 77.198C66.4542 77.198 70.7571 75.8012 74.4147 73.1152C78.9328 69.7846 91.3038 59.4703 92.0569 58.8257C94.5311 56.8918 94.9614 53.1314 93.025 50.6602ZM38.9151 79.884C32.9985 82.2477 26.6517 81.603 21.7032 78.1649C17.2927 74.9417 4.38377 64.6275 4.27619 64.52C2.87773 63.4456 2.555 61.4043 3.52317 59.9001C3.95347 59.2554 4.70649 58.7182 5.56708 58.6108C6.42768 58.5034 7.1807 58.7182 7.82615 59.148C7.82615 59.148 7.93372 59.148 7.93372 59.2554L16.0018 64.0903C16.4321 64.4126 17.0775 64.3051 17.5078 63.9828C17.9381 63.6605 18.0457 63.0159 17.8306 62.4787L8.68674 39.4865C8.04129 37.7674 8.79432 35.9409 10.4079 35.2963C11.0534 35.0814 11.8064 35.0814 12.5594 35.4037C13.3124 35.726 13.9579 36.3707 14.3882 37.1228L19.229 49.5858C19.4442 50.123 19.982 50.4454 20.4123 50.4454C20.5199 50.4454 20.7351 50.4454 20.8426 50.3379C21.4881 50.123 21.8108 49.2635 21.5957 48.6189L16.8624 36.5856V36.4781C16.8624 36.3707 16.7548 36.2632 16.7548 36.1558L14.173 29.4945C13.5276 27.7755 14.2806 25.949 15.8942 25.3043C16.6472 24.982 17.5078 24.982 18.2609 25.3043C19.0139 25.6267 19.6593 26.2713 19.982 27.1308L21.7032 31.6433L27.2971 46.1477C27.5123 46.6849 28.0501 47.0073 28.4804 47.0073C28.588 47.0073 28.8031 47.0073 28.9107 46.8998C29.5562 46.6849 29.8789 45.8254 29.6637 45.1808L24.285 31.1061L24.1774 30.7838C23.532 29.0648 24.285 27.2383 25.8986 26.5936C26.6517 26.2713 27.5123 26.2713 28.2653 26.5936C29.0183 26.9159 29.6637 27.5606 29.9865 28.4201L32.891 35.726C32.891 35.8335 32.891 35.8335 32.9985 35.9409L36.8712 46.1477C37.0864 46.7924 37.947 47.1147 38.5924 46.8998C39.2379 46.6849 39.5606 45.8254 39.3454 45.1808L35.3652 34.974C34.7197 33.2549 35.4728 31.4284 37.0864 30.7838C37.8394 30.4615 38.7 30.4615 39.453 30.7838C40.206 31.1061 40.8515 31.7508 41.1742 32.6103L49.7801 54.9578C53.3301 65.0572 48.5968 76.0161 38.9151 79.884ZM90.3357 56.7843C90.2281 56.8918 77.2116 67.6358 72.8011 70.9664C67.9602 74.6194 61.2906 75.4789 55.2664 73.3301C53.9755 72.9004 52.6846 72.2557 51.5013 71.5036C51.6089 71.2888 51.7165 71.0739 51.8241 70.7515C54.0831 65.487 54.2983 59.5778 52.3619 54.0983L46.6605 39.4865L51.071 26.9159C51.7165 25.1969 53.5452 24.3374 55.1589 24.8746C55.9119 25.1969 56.5573 25.7341 56.9876 26.4862C57.3103 27.2383 57.4179 28.2052 57.0952 28.9573L53.2225 39.9162C53.0074 40.5609 53.3301 41.3129 53.9755 41.6353C54.0831 41.6353 54.2983 41.7427 54.4058 41.7427C54.9437 41.7427 55.4816 41.4204 55.6967 40.8832L59.5694 29.9243C59.5694 29.8168 59.5694 29.8168 59.677 29.7094L62.3663 22.296C63.0118 20.577 64.8406 19.7175 66.4542 20.2547C67.2072 20.577 67.8526 21.1142 68.2829 21.8663C68.6057 22.6183 68.7132 23.5853 68.3905 24.4448L68.2829 24.7671L62.9042 40.346C62.6891 40.9906 63.0118 41.7427 63.7648 42.065C63.8724 42.065 64.0875 42.1725 64.1951 42.1725C64.733 42.1725 65.2709 41.8501 65.486 41.3129L71.0799 25.4118L72.6935 20.8993C73.3389 19.1803 75.1677 18.3207 76.7813 18.8579C77.5343 19.1803 78.1798 19.7175 78.6101 20.4695C78.9328 21.2216 79.0404 22.1886 78.7177 22.9407L76.351 29.3871C76.2434 29.6019 76.2434 29.7094 76.1359 29.9243C76.1359 30.0317 76.1359 30.1392 76.0283 30.1392L71.1874 43.4617C70.9723 44.1064 71.295 44.8585 71.9405 45.1808C72.048 45.1808 72.2632 45.2882 72.3708 45.2882C72.9086 45.2882 73.4465 44.9659 73.6617 44.4287L78.7177 30.4615C79.4707 28.9573 81.2994 28.0978 82.6979 28.635C83.4509 28.9573 84.0964 29.4945 84.5267 30.2466C84.8494 30.9987 84.957 31.9656 84.6342 32.7177L77.5343 51.9495C76.351 52.3793 75.2753 52.809 74.7374 53.0239C67.9602 50.4453 64.3027 53.4537 61.2906 55.8174C60.7527 56.2471 60.6452 57.1066 61.0755 57.6438C61.5057 58.181 62.3663 58.2885 62.9042 57.8587C65.8087 55.495 68.4981 53.2388 74.1995 55.6025C74.5222 55.7099 74.845 55.7099 75.1677 55.6025C75.4904 55.495 82.913 52.5942 85.4948 51.5198C86.8933 50.9826 89.4751 50.2305 90.8736 52.1644C92.0569 53.6686 91.7341 55.7099 90.3357 56.7843ZM16.97 13.5934L23.6396 17.891C23.8547 17.9984 24.0699 18.1059 24.3926 18.1059C24.8229 18.1059 25.2532 17.891 25.4683 17.4612C25.8986 16.8166 25.6835 16.0645 25.038 15.6347L18.3684 11.3371C17.723 10.9074 16.97 11.1222 16.5397 11.7669C16.1094 12.4115 16.3245 13.1636 16.97 13.5934ZM32.6758 12.519C32.891 13.0562 33.3213 13.3785 33.9667 13.3785C34.0743 13.3785 34.2894 13.3785 34.397 13.271C35.0425 13.0562 35.4728 12.3041 35.2576 11.552L31.6001 0.915418C31.3849 0.270777 30.6319 -0.158984 29.8789 0.0558968C29.2334 0.270777 28.8031 1.02286 29.0183 1.77494L32.6758 12.519ZM44.2938 11.552C44.4014 11.6594 44.6166 11.6594 44.7241 11.6594C45.262 11.6594 45.7999 11.3371 45.9075 10.7999L48.5968 3.38654C48.812 2.7419 48.4892 1.98982 47.8438 1.6675C47.1984 1.45262 46.4453 1.77494 46.1226 2.41958L43.4333 9.83295C43.2181 10.585 43.6484 11.3371 44.2938 11.552ZM53.7604 85.6857C53.1149 85.4709 52.3619 85.9006 52.1468 86.5453L49.8877 94.0661C49.6726 94.7107 50.1029 95.4628 50.7483 95.6777C50.8559 95.6777 50.9635 95.7851 51.1786 95.7851C51.7165 95.7851 52.2544 95.4628 52.4695 94.8182L54.7286 87.2973C54.8361 86.6527 54.5134 85.9006 53.7604 85.6857ZM64.9481 83.7518C64.6254 83.1072 63.8724 82.7849 63.2269 82.9997C62.5815 83.3221 62.2588 84.0741 62.4739 84.7188L66.7769 95.1405C66.992 95.6777 67.5299 96 67.9602 96C68.1754 96 68.2829 96 68.4981 95.8926C69.1435 95.5702 69.4663 94.8182 69.2511 94.1735L64.9481 83.7518ZM80.654 81.1733L73.7692 77.3054C73.1238 76.9831 72.3708 77.198 71.9405 77.8426C71.6177 78.4872 71.8329 79.2393 72.4783 79.6691L79.3631 83.5369C79.5782 83.6444 79.7934 83.7518 80.0085 83.7518C80.4388 83.7518 80.8691 83.5369 81.1919 83.1072C81.5146 82.3551 81.2994 81.603 80.654 81.1733Z" fill="#5850EC"/>
</g>
<defs>
<clipPath id="clip0">
<rect width="597.677" height="96" fill="white"/>
</clipPath>
</defs>
</svg>
